<svg width="14" height="12" viewBox="0 0 14 12" fill="none" xmlns="http://www.w3.org/2000/svg">
<path d="M6.90625 11.6667C6.76459 11.6667 6.62617 11.6243 6.50887 11.5449C6.3495 11.4379 2.60738 8.90279 1.44713 7.74042C0.150167 6.44346 0 5.06504 0 4.14067C0.000937733 3.1312 0.402363 2.16334 1.11617 1.44954C1.82997 0.735737 2.79782 0.334312 3.80729 0.333374C5.08371 0.333374 6.21421 0.964499 6.90625 1.93137C7.2581 1.43736 7.72291 1.03459 8.26197 0.756619C8.80102 0.478652 9.3987 0.333539 10.0052 0.333374C11.0147 0.334312 11.9825 0.735737 12.6963 1.44954C13.4101 2.16334 13.8116 3.1312 13.8125 4.14067C13.8125 5.06504 13.6623 6.44346 12.3654 7.74042C11.203 8.90279 7.46158 11.4379 7.30362 11.5449C7.18633 11.6243 7.04791 11.6667 6.90625 11.6667ZM3.80729 1.75004C3.17349 1.75079 2.56586 2.0029 2.11769 2.45107C1.66953 2.89923 1.41742 3.50686 1.41667 4.14067C1.41667 4.91487 1.53921 5.82933 2.44871 6.73883C3.30721 7.59733 5.9075 9.41279 6.90625 10.1006C7.905 9.41279 10.5053 7.59733 11.3638 6.73883C12.2733 5.82933 12.3958 4.91487 12.3958 4.14067C12.3958 2.82246 11.3234 1.75004 10.0052 1.75004C8.687 1.75004 7.61458 2.82246 7.61458 4.14067C7.61458 4.32853 7.53996 4.50869 7.40712 4.64153C7.27428 4.77437 7.09411 4.849 6.90625 4.849C6.71839 4.849 6.53822 4.77437 6.40538 4.64153C6.27254 4.50869 6.19792 4.32853 6.19792 4.14067C6.19717 3.50686 5.94506 2.89923 5.49689 2.45107C5.04872 2.0029 4.44109 1.75079 3.80729 1.75004Z" fill="black"/>
</svg>
