<svg width="1279" height="16" viewBox="0 0 1279 16" fill="none" xmlns="http://www.w3.org/2000/svg">
<path fill-rule="evenodd" clip-rule="evenodd" d="M17.75 2.25C18.1642 2.25 18.5 2.58579 18.5 3V5.93934L20.7197 3.71967C21.0126 3.42678 21.4874 3.42678 21.7803 3.71967C22.0732 4.01256 22.0732 4.48744 21.7803 4.78033L19.5607 7H22.5C22.9142 7 23.25 7.33579 23.25 7.75C23.25 8.16421 22.9142 8.5 22.5 8.5H19.5607L21.7803 10.7197C22.0732 11.0126 22.0732 11.4874 21.7803 11.7803C21.4874 12.0732 21.0126 12.0732 20.7197 11.7803L18.5 9.56066V12.5C18.5 12.9142 18.1642 13.25 17.75 13.25C17.3358 13.25 17 12.9142 17 12.5V9.56066L14.7803 11.7803C14.4874 12.0732 14.0126 12.0732 13.7197 11.7803C13.4268 11.4874 13.4268 11.0126 13.7197 10.7197L15.9393 8.5H13C12.5858 8.5 12.25 8.16421 12.25 7.75C12.25 7.33579 12.5858 7 13 7H15.9393L13.7197 4.78033C13.4268 4.48744 13.4268 4.01256 13.7197 3.71967C14.0126 3.42678 14.4874 3.42678 14.7803 3.71967L17 5.93934V3C17 2.58579 17.3358 2.25 17.75 2.25Z" fill="white"/>
<path d="M26 10.792H31.28C32.968 10.792 33.816 10.256 33.816 9.176V9.072C33.816 8.84 33.768 8.632 33.672 8.456C33.584 8.272 33.456 8.128 33.304 8.024C33.152 7.928 33.016 7.848 32.888 7.792C32.76 7.736 32.632 7.688 32.496 7.664C32.592 7.64 32.688 7.6 32.776 7.552C32.872 7.512 32.976 7.448 33.088 7.36C33.208 7.28 33.296 7.168 33.368 7.032C33.432 6.896 33.472 6.736 33.472 6.568V6.464C33.472 6.088 33.304 5.776 32.96 5.536C32.624 5.296 32.048 5.184 31.232 5.184H26V10.792ZM27.912 6.368H30.904C31.352 6.368 31.568 6.512 31.568 6.808V6.824C31.568 7.128 31.352 7.28 30.904 7.28H27.912V6.368ZM31.072 8.472C31.576 8.472 31.824 8.64 31.824 8.992V9.016C31.824 9.168 31.768 9.296 31.664 9.4C31.552 9.512 31.352 9.568 31.072 9.568H27.912V8.472H31.072Z" fill="white"/>
<path d="M37.8987 8.816H40.3947C40.8587 8.816 41.1867 8.888 41.3787 9.048C41.5707 9.2 41.6667 9.448 41.6667 9.8V10.448C41.6667 10.608 41.6667 10.8 41.6667 10.8H43.5867C43.5867 10.8 43.5867 10.416 43.5867 10.08V9.256C43.5867 8.912 43.4827 8.64 43.2667 8.424C43.0507 8.208 42.7707 8.056 42.4267 7.968C43.1867 7.744 43.5627 7.336 43.5627 6.744V6.656C43.5627 5.688 42.6827 5.2 40.9147 5.2H35.9947V10.8H37.8987V8.816ZM37.8987 6.472H40.7947C41.0587 6.472 41.2507 6.52 41.3787 6.624C41.5067 6.72 41.5707 6.856 41.5707 7.016V7.024C41.5707 7.184 41.5067 7.32 41.3787 7.424C41.2507 7.52 41.0587 7.568 40.7947 7.568H37.8987V6.472Z" fill="white"/>
<path d="M49.936 5.104C49.4 5.104 48.92 5.136 48.48 5.208C48.048 5.272 47.68 5.36 47.384 5.472C47.096 5.584 46.84 5.72 46.624 5.88C46.4 6.04 46.232 6.2 46.104 6.36C45.984 6.52 45.888 6.696 45.816 6.888C45.736 7.08 45.688 7.256 45.672 7.4C45.648 7.552 45.64 7.704 45.64 7.872V8.096C45.64 8.256 45.648 8.416 45.672 8.568C45.688 8.712 45.736 8.888 45.816 9.08C45.888 9.272 45.984 9.448 46.104 9.616C46.232 9.776 46.4 9.936 46.624 10.104C46.848 10.264 47.104 10.4 47.392 10.52C47.68 10.632 48.048 10.72 48.48 10.792C48.92 10.864 49.4 10.896 49.936 10.896H50.192C50.728 10.896 51.208 10.864 51.64 10.792C52.08 10.72 52.44 10.632 52.728 10.52C53.016 10.4 53.272 10.264 53.496 10.104C53.72 9.936 53.888 9.776 54.008 9.616C54.128 9.448 54.224 9.272 54.304 9.08C54.376 8.888 54.432 8.712 54.448 8.568C54.472 8.416 54.48 8.256 54.48 8.096V7.872C54.48 7.704 54.472 7.552 54.448 7.4C54.432 7.248 54.376 7.08 54.304 6.888C54.224 6.696 54.128 6.52 54 6.36C53.88 6.2 53.712 6.04 53.488 5.88C53.272 5.72 53.016 5.584 52.728 5.472C52.432 5.36 52.072 5.272 51.64 5.208C51.208 5.136 50.728 5.104 50.192 5.104H49.936ZM52.48 8.032C52.48 8.208 52.448 8.384 52.376 8.544C52.312 8.704 52.192 8.864 52.024 9.016C51.856 9.176 51.6 9.304 51.256 9.392C50.96 9.48 50.6 9.52 50.192 9.536C50.128 9.536 50.032 9.536 49.992 9.536C49.552 9.528 49.168 9.48 48.848 9.392C48.504 9.296 48.256 9.168 48.088 9.008C47.928 8.848 47.808 8.688 47.744 8.528C47.672 8.368 47.64 8.192 47.64 8.016V7.928C47.64 6.976 48.416 6.488 49.96 6.456C50.008 6.456 50.152 6.456 50.224 6.464C50.536 6.472 50.816 6.496 51.064 6.552C51.36 6.616 51.6 6.696 51.776 6.792C51.952 6.88 52.096 7 52.2 7.136C52.312 7.272 52.384 7.4 52.424 7.528C52.464 7.648 52.48 7.784 52.48 7.928V8.032Z" fill="white"/>
<path d="M56.6481 10.8H58.4801V6.92L60.8881 10.8H61.9121L64.3121 6.92V10.8H66.2001V5.2H63.5841L61.4641 8.688L59.3601 5.2H56.6481V10.8Z" fill="white"/>
<path d="M72.5236 10.808C73.1076 10.808 73.6276 10.736 74.0836 10.6C74.5396 10.464 74.8996 10.288 75.1636 10.08C75.4196 9.872 75.6356 9.632 75.8036 9.36C75.9636 9.08 76.0756 8.824 76.1396 8.584C76.1956 8.352 76.2196 8.112 76.2196 7.88V5.2H74.3316V7.776C74.3316 7.976 74.3076 8.16 74.2516 8.328C74.1956 8.504 74.0916 8.672 73.9556 8.84C73.8196 9 73.6116 9.136 73.3396 9.232C73.0676 9.328 72.7396 9.376 72.3556 9.376C71.9716 9.376 71.6356 9.328 71.3556 9.232C71.0836 9.136 70.8756 9 70.7396 8.84C70.6036 8.672 70.5076 8.504 70.4516 8.328C70.3956 8.16 70.3636 7.976 70.3636 7.776V5.2H68.4756V7.88C68.4756 8.048 68.4836 8.208 68.5076 8.376C68.5316 8.536 68.5796 8.72 68.6516 8.912C68.7236 9.112 68.8196 9.296 68.9316 9.472C69.0436 9.648 69.2036 9.816 69.3956 9.984C69.5876 10.152 69.8116 10.296 70.0676 10.416C70.3236 10.536 70.6356 10.632 71.0036 10.704C71.3716 10.776 71.7796 10.808 72.2276 10.808H72.5236Z" fill="white"/>
<path d="M78.4813 5.2V10.8H80.3613V7.088L84.5052 10.8H86.3932V5.2H84.5052V8.72L80.6092 5.2H78.4813Z" fill="white"/>
<path d="M92.8601 5.104C92.3241 5.104 91.8441 5.136 91.4041 5.208C90.9721 5.272 90.6041 5.36 90.3081 5.472C90.0201 5.584 89.7641 5.72 89.5481 5.88C89.3241 6.04 89.1561 6.2 89.0281 6.36C88.9081 6.52 88.8121 6.696 88.7401 6.888C88.6601 7.08 88.6121 7.256 88.5961 7.4C88.5721 7.552 88.5641 7.704 88.5641 7.872V8.096C88.5641 8.256 88.5721 8.416 88.5961 8.568C88.6121 8.712 88.6601 8.888 88.7401 9.08C88.8121 9.272 88.9081 9.448 89.0281 9.616C89.1561 9.776 89.3241 9.936 89.5481 10.104C89.7721 10.264 90.0281 10.4 90.3161 10.52C90.6041 10.632 90.9721 10.72 91.4041 10.792C91.8441 10.864 92.3241 10.896 92.8601 10.896H93.1161C93.6521 10.896 94.1321 10.864 94.5641 10.792C95.0041 10.72 95.3641 10.632 95.6521 10.52C95.9401 10.4 96.1961 10.264 96.4201 10.104C96.6441 9.936 96.8121 9.776 96.9321 9.616C97.0521 9.448 97.1481 9.272 97.2281 9.08C97.3001 8.888 97.3561 8.712 97.3721 8.568C97.3961 8.416 97.4041 8.256 97.4041 8.096V7.872C97.4041 7.704 97.3961 7.552 97.3721 7.4C97.3561 7.248 97.3001 7.08 97.2281 6.888C97.1481 6.696 97.0521 6.52 96.9241 6.36C96.8041 6.2 96.6361 6.04 96.4121 5.88C96.1961 5.72 95.9401 5.584 95.6521 5.472C95.3561 5.36 94.9961 5.272 94.5641 5.208C94.1321 5.136 93.6521 5.104 93.1161 5.104H92.8601ZM95.4041 8.032C95.4041 8.208 95.3721 8.384 95.3001 8.544C95.2361 8.704 95.1161 8.864 94.9481 9.016C94.7801 9.176 94.5241 9.304 94.1801 9.392C93.8841 9.48 93.5241 9.52 93.1161 9.536C93.0521 9.536 92.9561 9.536 92.9161 9.536C92.4761 9.528 92.0921 9.48 91.7721 9.392C91.4281 9.296 91.1801 9.168 91.0121 9.008C90.8521 8.848 90.7321 8.688 90.6681 8.528C90.5961 8.368 90.5641 8.192 90.5641 8.016V7.928C90.5641 6.976 91.3401 6.488 92.8841 6.456C92.9321 6.456 93.0761 6.456 93.1481 6.464C93.4601 6.472 93.7401 6.496 93.9881 6.552C94.2841 6.616 94.5241 6.696 94.7001 6.792C94.8761 6.88 95.0201 7 95.1241 7.136C95.2361 7.272 95.3081 7.4 95.3481 7.528C95.3881 7.648 95.4041 7.784 95.4041 7.928V8.032Z" fill="white"/>
<path d="M168.404 10.2321L173.204 8.76807V7.25607L168.404 5.76807V7.20807L171.656 8.01207L168.404 8.80407V10.2321Z" fill="white"/>
<path fill-rule="evenodd" clip-rule="evenodd" d="M251.954 2.25C252.368 2.25 252.704 2.58579 252.704 3V5.93934L254.924 3.71967C255.217 3.42678 255.692 3.42678 255.984 3.71967C256.277 4.01256 256.277 4.48744 255.984 4.78033L253.765 7H256.704C257.118 7 257.454 7.33579 257.454 7.75C257.454 8.16421 257.118 8.5 256.704 8.5H253.765L255.984 10.7197C256.277 11.0126 256.277 11.4874 255.984 11.7803C255.692 12.0732 255.217 12.0732 254.924 11.7803L252.704 9.56066V12.5C252.704 12.9142 252.368 13.25 251.954 13.25C251.54 13.25 251.204 12.9142 251.204 12.5V9.56066L248.984 11.7803C248.692 12.0732 248.217 12.0732 247.924 11.7803C247.631 11.4874 247.631 11.0126 247.924 10.7197L250.143 8.5H247.204C246.79 8.5 246.454 8.16421 246.454 7.75C246.454 7.33579 246.79 7 247.204 7H250.143L247.924 4.78033C247.631 4.48744 247.631 4.01256 247.924 3.71967C248.217 3.42678 248.692 3.42678 248.984 3.71967L251.204 5.93934V3C251.204 2.58579 251.54 2.25 251.954 2.25Z" fill="white"/>
<path d="M260.204 10.792H265.484C267.172 10.792 268.02 10.256 268.02 9.176V9.072C268.02 8.84 267.972 8.632 267.876 8.456C267.788 8.272 267.66 8.128 267.508 8.024C267.356 7.928 267.22 7.848 267.092 7.792C266.964 7.736 266.836 7.688 266.7 7.664C266.796 7.64 266.892 7.6 266.98 7.552C267.076 7.512 267.18 7.448 267.292 7.36C267.412 7.28 267.5 7.168 267.572 7.032C267.636 6.896 267.676 6.736 267.676 6.568V6.464C267.676 6.088 267.508 5.776 267.164 5.536C266.828 5.296 266.252 5.184 265.436 5.184H260.204V10.792ZM262.116 6.368H265.108C265.556 6.368 265.772 6.512 265.772 6.808V6.824C265.772 7.128 265.556 7.28 265.108 7.28H262.116V6.368ZM265.276 8.472C265.78 8.472 266.028 8.64 266.028 8.992V9.016C266.028 9.168 265.972 9.296 265.868 9.4C265.756 9.512 265.556 9.568 265.276 9.568H262.116V8.472H265.276Z" fill="white"/>
<path d="M272.103 8.816H274.599C275.063 8.816 275.391 8.888 275.583 9.048C275.775 9.2 275.871 9.448 275.871 9.8V10.448C275.871 10.608 275.871 10.8 275.871 10.8H277.791C277.791 10.8 277.791 10.416 277.791 10.08V9.256C277.791 8.912 277.687 8.64 277.471 8.424C277.255 8.208 276.975 8.056 276.631 7.968C277.391 7.744 277.767 7.336 277.767 6.744V6.656C277.767 5.688 276.887 5.2 275.119 5.2H270.199V10.8H272.103V8.816ZM272.103 6.472H274.999C275.263 6.472 275.455 6.52 275.583 6.624C275.711 6.72 275.775 6.856 275.775 7.016V7.024C275.775 7.184 275.711 7.32 275.583 7.424C275.455 7.52 275.263 7.568 274.999 7.568H272.103V6.472Z" fill="white"/>
<path d="M284.14 5.104C283.604 5.104 283.124 5.136 282.684 5.208C282.252 5.272 281.884 5.36 281.588 5.472C281.3 5.584 281.044 5.72 280.828 5.88C280.604 6.04 280.436 6.2 280.308 6.36C280.188 6.52 280.092 6.696 280.02 6.888C279.94 7.08 279.892 7.256 279.876 7.4C279.852 7.552 279.844 7.704 279.844 7.872V8.096C279.844 8.256 279.852 8.416 279.876 8.568C279.892 8.712 279.94 8.888 280.02 9.08C280.092 9.272 280.188 9.448 280.308 9.616C280.436 9.776 280.604 9.936 280.828 10.104C281.052 10.264 281.308 10.4 281.596 10.52C281.884 10.632 282.252 10.72 282.684 10.792C283.124 10.864 283.604 10.896 284.14 10.896H284.396C284.932 10.896 285.412 10.864 285.844 10.792C286.284 10.72 286.644 10.632 286.932 10.52C287.22 10.4 287.476 10.264 287.7 10.104C287.924 9.936 288.092 9.776 288.212 9.616C288.332 9.448 288.428 9.272 288.508 9.08C288.58 8.888 288.636 8.712 288.652 8.568C288.676 8.416 288.684 8.256 288.684 8.096V7.872C288.684 7.704 288.676 7.552 288.652 7.4C288.636 7.248 288.58 7.08 288.508 6.888C288.428 6.696 288.332 6.52 288.204 6.36C288.084 6.2 287.916 6.04 287.692 5.88C287.476 5.72 287.22 5.584 286.932 5.472C286.636 5.36 286.276 5.272 285.844 5.208C285.412 5.136 284.932 5.104 284.396 5.104H284.14ZM286.684 8.032C286.684 8.208 286.652 8.384 286.58 8.544C286.516 8.704 286.396 8.864 286.228 9.016C286.06 9.176 285.804 9.304 285.46 9.392C285.164 9.48 284.804 9.52 284.396 9.536C284.332 9.536 284.236 9.536 284.196 9.536C283.756 9.528 283.372 9.48 283.052 9.392C282.708 9.296 282.46 9.168 282.292 9.008C282.132 8.848 282.012 8.688 281.948 8.528C281.876 8.368 281.844 8.192 281.844 8.016V7.928C281.844 6.976 282.62 6.488 284.164 6.456C284.212 6.456 284.356 6.456 284.428 6.464C284.74 6.472 285.02 6.496 285.268 6.552C285.564 6.616 285.804 6.696 285.98 6.792C286.156 6.88 286.3 7 286.404 7.136C286.516 7.272 286.588 7.4 286.628 7.528C286.668 7.648 286.684 7.784 286.684 7.928V8.032Z" fill="white"/>
<path d="M290.852 10.8H292.684V6.92L295.092 10.8H296.116L298.516 6.92V10.8H300.404V5.2H297.788L295.668 8.688L293.564 5.2H290.852V10.8Z" fill="white"/>
<path d="M306.728 10.808C307.312 10.808 307.832 10.736 308.288 10.6C308.744 10.464 309.104 10.288 309.368 10.08C309.624 9.872 309.84 9.632 310.008 9.36C310.168 9.08 310.28 8.824 310.344 8.584C310.4 8.352 310.424 8.112 310.424 7.88V5.2H308.536V7.776C308.536 7.976 308.512 8.16 308.456 8.328C308.4 8.504 308.296 8.672 308.16 8.84C308.024 9 307.816 9.136 307.544 9.232C307.272 9.328 306.944 9.376 306.56 9.376C306.176 9.376 305.84 9.328 305.56 9.232C305.288 9.136 305.08 9 304.944 8.84C304.808 8.672 304.712 8.504 304.656 8.328C304.6 8.16 304.568 7.976 304.568 7.776V5.2H302.68V7.88C302.68 8.048 302.688 8.208 302.712 8.376C302.736 8.536 302.784 8.72 302.856 8.912C302.928 9.112 303.024 9.296 303.136 9.472C303.248 9.648 303.408 9.816 303.6 9.984C303.792 10.152 304.016 10.296 304.272 10.416C304.528 10.536 304.84 10.632 305.208 10.704C305.576 10.776 305.984 10.808 306.432 10.808H306.728Z" fill="white"/>
<path d="M312.685 5.2V10.8H314.565V7.088L318.709 10.8H320.597V5.2H318.709V8.72L314.813 5.2H312.685Z" fill="white"/>
<path d="M327.064 5.104C326.528 5.104 326.048 5.136 325.608 5.208C325.176 5.272 324.808 5.36 324.512 5.472C324.224 5.584 323.968 5.72 323.752 5.88C323.528 6.04 323.36 6.2 323.232 6.36C323.112 6.52 323.016 6.696 322.944 6.888C322.864 7.08 322.816 7.256 322.8 7.4C322.776 7.552 322.768 7.704 322.768 7.872V8.096C322.768 8.256 322.776 8.416 322.8 8.568C322.816 8.712 322.864 8.888 322.944 9.08C323.016 9.272 323.112 9.448 323.232 9.616C323.36 9.776 323.528 9.936 323.752 10.104C323.976 10.264 324.232 10.4 324.52 10.52C324.808 10.632 325.176 10.72 325.608 10.792C326.048 10.864 326.528 10.896 327.064 10.896H327.32C327.856 10.896 328.336 10.864 328.768 10.792C329.208 10.72 329.568 10.632 329.856 10.52C330.144 10.4 330.4 10.264 330.624 10.104C330.848 9.936 331.016 9.776 331.136 9.616C331.256 9.448 331.352 9.272 331.432 9.08C331.504 8.888 331.56 8.712 331.576 8.568C331.6 8.416 331.608 8.256 331.608 8.096V7.872C331.608 7.704 331.6 7.552 331.576 7.4C331.56 7.248 331.504 7.08 331.432 6.888C331.352 6.696 331.256 6.52 331.128 6.36C331.008 6.2 330.84 6.04 330.616 5.88C330.4 5.72 330.144 5.584 329.856 5.472C329.56 5.36 329.2 5.272 328.768 5.208C328.336 5.136 327.856 5.104 327.32 5.104H327.064ZM329.608 8.032C329.608 8.208 329.576 8.384 329.504 8.544C329.44 8.704 329.32 8.864 329.152 9.016C328.984 9.176 328.728 9.304 328.384 9.392C328.088 9.48 327.728 9.52 327.32 9.536C327.256 9.536 327.16 9.536 327.12 9.536C326.68 9.528 326.296 9.48 325.976 9.392C325.632 9.296 325.384 9.168 325.216 9.008C325.056 8.848 324.936 8.688 324.872 8.528C324.8 8.368 324.768 8.192 324.768 8.016V7.928C324.768 6.976 325.544 6.488 327.088 6.456C327.136 6.456 327.28 6.456 327.352 6.464C327.664 6.472 327.944 6.496 328.192 6.552C328.488 6.616 328.728 6.696 328.904 6.792C329.08 6.88 329.224 7 329.328 7.136C329.44 7.272 329.512 7.4 329.552 7.528C329.592 7.648 329.608 7.784 329.608 7.928V8.032Z" fill="white"/>
<path d="M402.608 10.2321L407.408 8.76807V7.25607L402.608 5.76807V7.20807L405.86 8.01207L402.608 8.80407V10.2321Z" fill="white"/>
<path fill-rule="evenodd" clip-rule="evenodd" d="M486.158 2.25C486.572 2.25 486.908 2.58579 486.908 3V5.93934L489.128 3.71967C489.421 3.42678 489.896 3.42678 490.189 3.71967C490.481 4.01256 490.481 4.48744 490.189 4.78033L487.969 7H490.908C491.322 7 491.658 7.33579 491.658 7.75C491.658 8.16421 491.322 8.5 490.908 8.5H487.969L490.189 10.7197C490.481 11.0126 490.481 11.4874 490.189 11.7803C489.896 12.0732 489.421 12.0732 489.128 11.7803L486.908 9.56066V12.5C486.908 12.9142 486.572 13.25 486.158 13.25C485.744 13.25 485.408 12.9142 485.408 12.5V9.56066L483.189 11.7803C482.896 12.0732 482.421 12.0732 482.128 11.7803C481.835 11.4874 481.835 11.0126 482.128 10.7197L484.348 8.5H481.408C480.994 8.5 480.658 8.16421 480.658 7.75C480.658 7.33579 480.994 7 481.408 7H484.348L482.128 4.78033C481.835 4.48744 481.835 4.01256 482.128 3.71967C482.421 3.42678 482.896 3.42678 483.189 3.71967L485.408 5.93934V3C485.408 2.58579 485.744 2.25 486.158 2.25Z" fill="white"/>
<path d="M494.408 10.792H499.688C501.376 10.792 502.224 10.256 502.224 9.176V9.072C502.224 8.84 502.176 8.632 502.08 8.456C501.992 8.272 501.864 8.128 501.712 8.024C501.56 7.928 501.424 7.848 501.296 7.792C501.168 7.736 501.04 7.688 500.904 7.664C501 7.64 501.096 7.6 501.184 7.552C501.28 7.512 501.384 7.448 501.496 7.36C501.616 7.28 501.704 7.168 501.776 7.032C501.84 6.896 501.88 6.736 501.88 6.568V6.464C501.88 6.088 501.712 5.776 501.368 5.536C501.032 5.296 500.456 5.184 499.64 5.184H494.408V10.792ZM496.32 6.368H499.312C499.76 6.368 499.976 6.512 499.976 6.808V6.824C499.976 7.128 499.76 7.28 499.312 7.28H496.32V6.368ZM499.48 8.472C499.984 8.472 500.232 8.64 500.232 8.992V9.016C500.232 9.168 500.176 9.296 500.072 9.4C499.96 9.512 499.76 9.568 499.48 9.568H496.32V8.472H499.48Z" fill="white"/>
<path d="M506.307 8.816H508.803C509.267 8.816 509.595 8.888 509.787 9.048C509.979 9.2 510.075 9.448 510.075 9.8V10.448C510.075 10.608 510.075 10.8 510.075 10.8H511.995C511.995 10.8 511.995 10.416 511.995 10.08V9.256C511.995 8.912 511.891 8.64 511.675 8.424C511.459 8.208 511.179 8.056 510.835 7.968C511.595 7.744 511.971 7.336 511.971 6.744V6.656C511.971 5.688 511.091 5.2 509.323 5.2H504.403V10.8H506.307V8.816ZM506.307 6.472H509.203C509.467 6.472 509.659 6.52 509.787 6.624C509.915 6.72 509.979 6.856 509.979 7.016V7.024C509.979 7.184 509.915 7.32 509.787 7.424C509.659 7.52 509.467 7.568 509.203 7.568H506.307V6.472Z" fill="white"/>
<path d="M518.344 5.104C517.808 5.104 517.328 5.136 516.888 5.208C516.456 5.272 516.088 5.36 515.792 5.472C515.504 5.584 515.248 5.72 515.032 5.88C514.808 6.04 514.64 6.2 514.512 6.36C514.392 6.52 514.296 6.696 514.224 6.888C514.144 7.08 514.096 7.256 514.08 7.4C514.056 7.552 514.048 7.704 514.048 7.872V8.096C514.048 8.256 514.056 8.416 514.08 8.568C514.096 8.712 514.144 8.888 514.224 9.08C514.296 9.272 514.392 9.448 514.512 9.616C514.64 9.776 514.808 9.936 515.032 10.104C515.256 10.264 515.512 10.4 515.8 10.52C516.088 10.632 516.456 10.72 516.888 10.792C517.328 10.864 517.808 10.896 518.344 10.896H518.6C519.136 10.896 519.616 10.864 520.048 10.792C520.488 10.72 520.848 10.632 521.136 10.52C521.424 10.4 521.68 10.264 521.904 10.104C522.128 9.936 522.296 9.776 522.416 9.616C522.536 9.448 522.632 9.272 522.712 9.08C522.784 8.888 522.84 8.712 522.856 8.568C522.88 8.416 522.888 8.256 522.888 8.096V7.872C522.888 7.704 522.88 7.552 522.856 7.4C522.84 7.248 522.784 7.08 522.712 6.888C522.632 6.696 522.536 6.52 522.408 6.36C522.288 6.2 522.12 6.04 521.896 5.88C521.68 5.72 521.424 5.584 521.136 5.472C520.84 5.36 520.48 5.272 520.048 5.208C519.616 5.136 519.136 5.104 518.6 5.104H518.344ZM520.888 8.032C520.888 8.208 520.856 8.384 520.784 8.544C520.72 8.704 520.6 8.864 520.432 9.016C520.264 9.176 520.008 9.304 519.664 9.392C519.368 9.48 519.008 9.52 518.6 9.536C518.536 9.536 518.44 9.536 518.4 9.536C517.96 9.528 517.576 9.48 517.256 9.392C516.912 9.296 516.664 9.168 516.496 9.008C516.336 8.848 516.216 8.688 516.152 8.528C516.08 8.368 516.048 8.192 516.048 8.016V7.928C516.048 6.976 516.824 6.488 518.368 6.456C518.416 6.456 518.56 6.456 518.632 6.464C518.944 6.472 519.224 6.496 519.472 6.552C519.768 6.616 520.008 6.696 520.184 6.792C520.36 6.88 520.504 7 520.608 7.136C520.72 7.272 520.792 7.4 520.832 7.528C520.872 7.648 520.888 7.784 520.888 7.928V8.032Z" fill="white"/>
<path d="M525.056 10.8H526.888V6.92L529.296 10.8H530.32L532.72 6.92V10.8H534.608V5.2H531.992L529.872 8.688L527.768 5.2H525.056V10.8Z" fill="white"/>
<path d="M540.932 10.808C541.516 10.808 542.036 10.736 542.492 10.6C542.948 10.464 543.308 10.288 543.572 10.08C543.828 9.872 544.044 9.632 544.212 9.36C544.372 9.08 544.484 8.824 544.548 8.584C544.604 8.352 544.628 8.112 544.628 7.88V5.2H542.74V7.776C542.74 7.976 542.716 8.16 542.66 8.328C542.604 8.504 542.5 8.672 542.364 8.84C542.228 9 542.02 9.136 541.748 9.232C541.476 9.328 541.148 9.376 540.764 9.376C540.38 9.376 540.044 9.328 539.764 9.232C539.492 9.136 539.284 9 539.148 8.84C539.012 8.672 538.916 8.504 538.86 8.328C538.804 8.16 538.772 7.976 538.772 7.776V5.2H536.884V7.88C536.884 8.048 536.892 8.208 536.916 8.376C536.94 8.536 536.988 8.72 537.06 8.912C537.132 9.112 537.228 9.296 537.34 9.472C537.452 9.648 537.612 9.816 537.804 9.984C537.996 10.152 538.22 10.296 538.476 10.416C538.732 10.536 539.044 10.632 539.412 10.704C539.78 10.776 540.188 10.808 540.636 10.808H540.932Z" fill="white"/>
<path d="M546.889 5.2V10.8H548.769V7.088L552.913 10.8H554.801V5.2H552.913V8.72L549.017 5.2H546.889Z" fill="white"/>
<path d="M561.268 5.104C560.732 5.104 560.252 5.136 559.812 5.208C559.38 5.272 559.012 5.36 558.716 5.472C558.428 5.584 558.172 5.72 557.956 5.88C557.732 6.04 557.564 6.2 557.436 6.36C557.316 6.52 557.22 6.696 557.148 6.888C557.068 7.08 557.02 7.256 557.004 7.4C556.98 7.552 556.972 7.704 556.972 7.872V8.096C556.972 8.256 556.98 8.416 557.004 8.568C557.02 8.712 557.068 8.888 557.148 9.08C557.22 9.272 557.316 9.448 557.436 9.616C557.564 9.776 557.732 9.936 557.956 10.104C558.18 10.264 558.436 10.4 558.724 10.52C559.012 10.632 559.38 10.72 559.812 10.792C560.252 10.864 560.732 10.896 561.268 10.896H561.524C562.06 10.896 562.54 10.864 562.972 10.792C563.412 10.72 563.772 10.632 564.06 10.52C564.348 10.4 564.604 10.264 564.828 10.104C565.052 9.936 565.22 9.776 565.34 9.616C565.46 9.448 565.556 9.272 565.636 9.08C565.708 8.888 565.764 8.712 565.78 8.568C565.804 8.416 565.812 8.256 565.812 8.096V7.872C565.812 7.704 565.804 7.552 565.78 7.4C565.764 7.248 565.708 7.08 565.636 6.888C565.556 6.696 565.46 6.52 565.332 6.36C565.212 6.2 565.044 6.04 564.82 5.88C564.604 5.72 564.348 5.584 564.06 5.472C563.764 5.36 563.404 5.272 562.972 5.208C562.54 5.136 562.06 5.104 561.524 5.104H561.268ZM563.812 8.032C563.812 8.208 563.78 8.384 563.708 8.544C563.644 8.704 563.524 8.864 563.356 9.016C563.188 9.176 562.932 9.304 562.588 9.392C562.292 9.48 561.932 9.52 561.524 9.536C561.46 9.536 561.364 9.536 561.324 9.536C560.884 9.528 560.5 9.48 560.18 9.392C559.836 9.296 559.588 9.168 559.42 9.008C559.26 8.848 559.14 8.688 559.076 8.528C559.004 8.368 558.972 8.192 558.972 8.016V7.928C558.972 6.976 559.748 6.488 561.292 6.456C561.34 6.456 561.484 6.456 561.556 6.464C561.868 6.472 562.148 6.496 562.396 6.552C562.692 6.616 562.932 6.696 563.108 6.792C563.284 6.88 563.428 7 563.532 7.136C563.644 7.272 563.716 7.4 563.756 7.528C563.796 7.648 563.812 7.784 563.812 7.928V8.032Z" fill="white"/>
<path d="M636.812 10.2321L641.612 8.76807V7.25607L636.812 5.76807V7.20807L640.064 8.01207L636.812 8.80407V10.2321Z" fill="white"/>
<path fill-rule="evenodd" clip-rule="evenodd" d="M720.362 2.25C720.777 2.25 721.112 2.58579 721.112 3V5.93934L723.332 3.71967C723.625 3.42678 724.1 3.42678 724.393 3.71967C724.686 4.01256 724.686 4.48744 724.393 4.78033L722.173 7H725.112C725.527 7 725.862 7.33579 725.862 7.75C725.862 8.16421 725.527 8.5 725.112 8.5H722.173L724.393 10.7197C724.686 11.0126 724.686 11.4874 724.393 11.7803C724.1 12.0732 723.625 12.0732 723.332 11.7803L721.112 9.56066V12.5C721.112 12.9142 720.777 13.25 720.362 13.25C719.948 13.25 719.612 12.9142 719.612 12.5V9.56066L717.393 11.7803C717.1 12.0732 716.625 12.0732 716.332 11.7803C716.039 11.4874 716.039 11.0126 716.332 10.7197L718.552 8.5H715.612C715.198 8.5 714.862 8.16421 714.862 7.75C714.862 7.33579 715.198 7 715.612 7H718.552L716.332 4.78033C716.039 4.48744 716.039 4.01256 716.332 3.71967C716.625 3.42678 717.1 3.42678 717.393 3.71967L719.612 5.93934V3C719.612 2.58579 719.948 2.25 720.362 2.25Z" fill="white"/>
<path d="M728.612 10.792H733.892C735.58 10.792 736.428 10.256 736.428 9.176V9.072C736.428 8.84 736.38 8.632 736.284 8.456C736.196 8.272 736.068 8.128 735.916 8.024C735.764 7.928 735.628 7.848 735.5 7.792C735.372 7.736 735.244 7.688 735.108 7.664C735.204 7.64 735.3 7.6 735.388 7.552C735.484 7.512 735.588 7.448 735.7 7.36C735.82 7.28 735.908 7.168 735.98 7.032C736.044 6.896 736.084 6.736 736.084 6.568V6.464C736.084 6.088 735.916 5.776 735.572 5.536C735.236 5.296 734.66 5.184 733.844 5.184H728.612V10.792ZM730.524 6.368H733.516C733.964 6.368 734.18 6.512 734.18 6.808V6.824C734.18 7.128 733.964 7.28 733.516 7.28H730.524V6.368ZM733.684 8.472C734.188 8.472 734.436 8.64 734.436 8.992V9.016C734.436 9.168 734.38 9.296 734.276 9.4C734.164 9.512 733.964 9.568 733.684 9.568H730.524V8.472H733.684Z" fill="white"/>
<path d="M740.511 8.816H743.007C743.471 8.816 743.799 8.888 743.991 9.048C744.183 9.2 744.279 9.448 744.279 9.8V10.448C744.279 10.608 744.279 10.8 744.279 10.8H746.199C746.199 10.8 746.199 10.416 746.199 10.08V9.256C746.199 8.912 746.095 8.64 745.879 8.424C745.663 8.208 745.383 8.056 745.039 7.968C745.799 7.744 746.175 7.336 746.175 6.744V6.656C746.175 5.688 745.295 5.2 743.527 5.2H738.607V10.8H740.511V8.816ZM740.511 6.472H743.407C743.671 6.472 743.863 6.52 743.991 6.624C744.119 6.72 744.183 6.856 744.183 7.016V7.024C744.183 7.184 744.119 7.32 743.991 7.424C743.863 7.52 743.671 7.568 743.407 7.568H740.511V6.472Z" fill="white"/>
<path d="M752.548 5.104C752.012 5.104 751.532 5.136 751.092 5.208C750.66 5.272 750.292 5.36 749.996 5.472C749.708 5.584 749.452 5.72 749.236 5.88C749.012 6.04 748.844 6.2 748.716 6.36C748.596 6.52 748.5 6.696 748.428 6.888C748.348 7.08 748.3 7.256 748.284 7.4C748.26 7.552 748.252 7.704 748.252 7.872V8.096C748.252 8.256 748.26 8.416 748.284 8.568C748.3 8.712 748.348 8.888 748.428 9.08C748.5 9.272 748.596 9.448 748.716 9.616C748.844 9.776 749.012 9.936 749.236 10.104C749.46 10.264 749.716 10.4 750.004 10.52C750.292 10.632 750.66 10.72 751.092 10.792C751.532 10.864 752.012 10.896 752.548 10.896H752.804C753.34 10.896 753.82 10.864 754.252 10.792C754.692 10.72 755.052 10.632 755.34 10.52C755.628 10.4 755.884 10.264 756.108 10.104C756.332 9.936 756.5 9.776 756.62 9.616C756.74 9.448 756.836 9.272 756.916 9.08C756.988 8.888 757.044 8.712 757.06 8.568C757.084 8.416 757.092 8.256 757.092 8.096V7.872C757.092 7.704 757.084 7.552 757.06 7.4C757.044 7.248 756.988 7.08 756.916 6.888C756.836 6.696 756.74 6.52 756.612 6.36C756.492 6.2 756.324 6.04 756.1 5.88C755.884 5.72 755.628 5.584 755.34 5.472C755.044 5.36 754.684 5.272 754.252 5.208C753.82 5.136 753.34 5.104 752.804 5.104H752.548ZM755.092 8.032C755.092 8.208 755.06 8.384 754.988 8.544C754.924 8.704 754.804 8.864 754.636 9.016C754.468 9.176 754.212 9.304 753.868 9.392C753.572 9.48 753.212 9.52 752.804 9.536C752.74 9.536 752.644 9.536 752.604 9.536C752.164 9.528 751.78 9.48 751.46 9.392C751.116 9.296 750.868 9.168 750.7 9.008C750.54 8.848 750.42 8.688 750.356 8.528C750.284 8.368 750.252 8.192 750.252 8.016V7.928C750.252 6.976 751.028 6.488 752.572 6.456C752.62 6.456 752.764 6.456 752.836 6.464C753.148 6.472 753.428 6.496 753.676 6.552C753.972 6.616 754.212 6.696 754.388 6.792C754.564 6.88 754.708 7 754.812 7.136C754.924 7.272 754.996 7.4 755.036 7.528C755.076 7.648 755.092 7.784 755.092 7.928V8.032Z" fill="white"/>
<path d="M759.26 10.8H761.092V6.92L763.5 10.8H764.524L766.924 6.92V10.8H768.812V5.2H766.196L764.076 8.688L761.972 5.2H759.26V10.8Z" fill="white"/>
<path d="M775.136 10.808C775.72 10.808 776.24 10.736 776.696 10.6C777.152 10.464 777.512 10.288 777.776 10.08C778.032 9.872 778.248 9.632 778.416 9.36C778.576 9.08 778.688 8.824 778.752 8.584C778.808 8.352 778.832 8.112 778.832 7.88V5.2H776.944V7.776C776.944 7.976 776.92 8.16 776.864 8.328C776.808 8.504 776.704 8.672 776.568 8.84C776.432 9 776.224 9.136 775.952 9.232C775.68 9.328 775.352 9.376 774.968 9.376C774.584 9.376 774.248 9.328 773.968 9.232C773.696 9.136 773.488 9 773.352 8.84C773.216 8.672 773.12 8.504 773.064 8.328C773.008 8.16 772.976 7.976 772.976 7.776V5.2H771.088V7.88C771.088 8.048 771.096 8.208 771.12 8.376C771.144 8.536 771.192 8.72 771.264 8.912C771.336 9.112 771.432 9.296 771.544 9.472C771.656 9.648 771.816 9.816 772.008 9.984C772.2 10.152 772.424 10.296 772.68 10.416C772.936 10.536 773.248 10.632 773.616 10.704C773.984 10.776 774.392 10.808 774.84 10.808H775.136Z" fill="white"/>
<path d="M781.094 5.2V10.8H782.974V7.088L787.118 10.8H789.006V5.2H787.118V8.72L783.222 5.2H781.094Z" fill="white"/>
<path d="M795.472 5.104C794.936 5.104 794.456 5.136 794.016 5.208C793.584 5.272 793.216 5.36 792.92 5.472C792.632 5.584 792.376 5.72 792.16 5.88C791.936 6.04 791.768 6.2 791.64 6.36C791.52 6.52 791.424 6.696 791.352 6.888C791.272 7.08 791.224 7.256 791.208 7.4C791.184 7.552 791.176 7.704 791.176 7.872V8.096C791.176 8.256 791.184 8.416 791.208 8.568C791.224 8.712 791.272 8.888 791.352 9.08C791.424 9.272 791.52 9.448 791.64 9.616C791.768 9.776 791.936 9.936 792.16 10.104C792.384 10.264 792.64 10.4 792.928 10.52C793.216 10.632 793.584 10.72 794.016 10.792C794.456 10.864 794.936 10.896 795.472 10.896H795.728C796.264 10.896 796.744 10.864 797.176 10.792C797.616 10.72 797.976 10.632 798.264 10.52C798.552 10.4 798.808 10.264 799.032 10.104C799.256 9.936 799.424 9.776 799.544 9.616C799.664 9.448 799.76 9.272 799.84 9.08C799.912 8.888 799.968 8.712 799.984 8.568C800.008 8.416 800.016 8.256 800.016 8.096V7.872C800.016 7.704 800.008 7.552 799.984 7.4C799.968 7.248 799.912 7.08 799.84 6.888C799.76 6.696 799.664 6.52 799.536 6.36C799.416 6.2 799.248 6.04 799.024 5.88C798.808 5.72 798.552 5.584 798.264 5.472C797.968 5.36 797.608 5.272 797.176 5.208C796.744 5.136 796.264 5.104 795.728 5.104H795.472ZM798.016 8.032C798.016 8.208 797.984 8.384 797.912 8.544C797.848 8.704 797.728 8.864 797.56 9.016C797.392 9.176 797.136 9.304 796.792 9.392C796.496 9.48 796.136 9.52 795.728 9.536C795.664 9.536 795.568 9.536 795.528 9.536C795.088 9.528 794.704 9.48 794.384 9.392C794.04 9.296 793.792 9.168 793.624 9.008C793.464 8.848 793.344 8.688 793.28 8.528C793.208 8.368 793.176 8.192 793.176 8.016V7.928C793.176 6.976 793.952 6.488 795.496 6.456C795.544 6.456 795.688 6.456 795.76 6.464C796.072 6.472 796.352 6.496 796.6 6.552C796.896 6.616 797.136 6.696 797.312 6.792C797.488 6.88 797.632 7 797.736 7.136C797.848 7.272 797.92 7.4 797.96 7.528C798 7.648 798.016 7.784 798.016 7.928V8.032Z" fill="white"/>
<path d="M871.016 10.2321L875.816 8.76807V7.25607L871.016 5.76807V7.20807L874.268 8.01207L871.016 8.80407V10.2321Z" fill="white"/>
<path fill-rule="evenodd" clip-rule="evenodd" d="M954.566 2.25C954.981 2.25 955.316 2.58579 955.316 3V5.93934L957.536 3.71967C957.829 3.42678 958.304 3.42678 958.597 3.71967C958.89 4.01256 958.89 4.48744 958.597 4.78033L956.377 7H959.316C959.731 7 960.066 7.33579 960.066 7.75C960.066 8.16421 959.731 8.5 959.316 8.5H956.377L958.597 10.7197C958.89 11.0126 958.89 11.4874 958.597 11.7803C958.304 12.0732 957.829 12.0732 957.536 11.7803L955.316 9.56066V12.5C955.316 12.9142 954.981 13.25 954.566 13.25C954.152 13.25 953.816 12.9142 953.816 12.5V9.56066L951.597 11.7803C951.304 12.0732 950.829 12.0732 950.536 11.7803C950.243 11.4874 950.243 11.0126 950.536 10.7197L952.756 8.5H949.816C949.402 8.5 949.066 8.16421 949.066 7.75C949.066 7.33579 949.402 7 949.816 7H952.756L950.536 4.78033C950.243 4.48744 950.243 4.01256 950.536 3.71967C950.829 3.42678 951.304 3.42678 951.597 3.71967L953.816 5.93934V3C953.816 2.58579 954.152 2.25 954.566 2.25Z" fill="white"/>
<path d="M962.816 10.792H968.096C969.784 10.792 970.632 10.256 970.632 9.176V9.072C970.632 8.84 970.584 8.632 970.488 8.456C970.4 8.272 970.272 8.128 970.12 8.024C969.968 7.928 969.832 7.848 969.704 7.792C969.576 7.736 969.448 7.688 969.312 7.664C969.408 7.64 969.504 7.6 969.592 7.552C969.688 7.512 969.792 7.448 969.904 7.36C970.024 7.28 970.112 7.168 970.184 7.032C970.248 6.896 970.288 6.736 970.288 6.568V6.464C970.288 6.088 970.12 5.776 969.776 5.536C969.44 5.296 968.864 5.184 968.048 5.184H962.816V10.792ZM964.728 6.368H967.72C968.168 6.368 968.384 6.512 968.384 6.808V6.824C968.384 7.128 968.168 7.28 967.72 7.28H964.728V6.368ZM967.888 8.472C968.392 8.472 968.64 8.64 968.64 8.992V9.016C968.64 9.168 968.584 9.296 968.48 9.4C968.368 9.512 968.168 9.568 967.888 9.568H964.728V8.472H967.888Z" fill="white"/>
<path d="M974.715 8.816H977.211C977.675 8.816 978.003 8.888 978.195 9.048C978.387 9.2 978.483 9.448 978.483 9.8V10.448C978.483 10.608 978.483 10.8 978.483 10.8H980.403C980.403 10.8 980.403 10.416 980.403 10.08V9.256C980.403 8.912 980.299 8.64 980.083 8.424C979.867 8.208 979.587 8.056 979.243 7.968C980.003 7.744 980.379 7.336 980.379 6.744V6.656C980.379 5.688 979.499 5.2 977.731 5.2H972.811V10.8H974.715V8.816ZM974.715 6.472H977.611C977.875 6.472 978.067 6.52 978.195 6.624C978.323 6.72 978.387 6.856 978.387 7.016V7.024C978.387 7.184 978.323 7.32 978.195 7.424C978.067 7.52 977.875 7.568 977.611 7.568H974.715V6.472Z" fill="white"/>
<path d="M986.752 5.104C986.216 5.104 985.736 5.136 985.296 5.208C984.864 5.272 984.496 5.36 984.2 5.472C983.912 5.584 983.656 5.72 983.44 5.88C983.216 6.04 983.048 6.2 982.92 6.36C982.8 6.52 982.704 6.696 982.632 6.888C982.552 7.08 982.504 7.256 982.488 7.4C982.464 7.552 982.456 7.704 982.456 7.872V8.096C982.456 8.256 982.464 8.416 982.488 8.568C982.504 8.712 982.552 8.888 982.632 9.08C982.704 9.272 982.8 9.448 982.92 9.616C983.048 9.776 983.216 9.936 983.44 10.104C983.664 10.264 983.92 10.4 984.208 10.52C984.496 10.632 984.864 10.72 985.296 10.792C985.736 10.864 986.216 10.896 986.752 10.896H987.008C987.544 10.896 988.024 10.864 988.456 10.792C988.896 10.72 989.256 10.632 989.544 10.52C989.832 10.4 990.088 10.264 990.312 10.104C990.536 9.936 990.704 9.776 990.824 9.616C990.944 9.448 991.04 9.272 991.12 9.08C991.192 8.888 991.248 8.712 991.264 8.568C991.288 8.416 991.296 8.256 991.296 8.096V7.872C991.296 7.704 991.288 7.552 991.264 7.4C991.248 7.248 991.192 7.08 991.12 6.888C991.04 6.696 990.944 6.52 990.816 6.36C990.696 6.2 990.528 6.04 990.304 5.88C990.088 5.72 989.832 5.584 989.544 5.472C989.248 5.36 988.888 5.272 988.456 5.208C988.024 5.136 987.544 5.104 987.008 5.104H986.752ZM989.296 8.032C989.296 8.208 989.264 8.384 989.192 8.544C989.128 8.704 989.008 8.864 988.84 9.016C988.672 9.176 988.416 9.304 988.072 9.392C987.776 9.48 987.416 9.52 987.008 9.536C986.944 9.536 986.848 9.536 986.808 9.536C986.368 9.528 985.984 9.48 985.664 9.392C985.32 9.296 985.072 9.168 984.904 9.008C984.744 8.848 984.624 8.688 984.56 8.528C984.488 8.368 984.456 8.192 984.456 8.016V7.928C984.456 6.976 985.232 6.488 986.776 6.456C986.824 6.456 986.968 6.456 987.04 6.464C987.352 6.472 987.632 6.496 987.88 6.552C988.176 6.616 988.416 6.696 988.592 6.792C988.768 6.88 988.912 7 989.016 7.136C989.128 7.272 989.2 7.4 989.24 7.528C989.28 7.648 989.296 7.784 989.296 7.928V8.032Z" fill="white"/>
<path d="M993.465 10.8H995.297V6.92L997.705 10.8H998.729L1001.13 6.92V10.8H1003.02V5.2H1000.4L998.281 8.688L996.177 5.2H993.465V10.8Z" fill="white"/>
<path d="M1009.34 10.808C1009.92 10.808 1010.44 10.736 1010.9 10.6C1011.36 10.464 1011.72 10.288 1011.98 10.08C1012.24 9.872 1012.45 9.632 1012.62 9.36C1012.78 9.08 1012.89 8.824 1012.96 8.584C1013.01 8.352 1013.04 8.112 1013.04 7.88V5.2H1011.15V7.776C1011.15 7.976 1011.12 8.16 1011.07 8.328C1011.01 8.504 1010.91 8.672 1010.77 8.84C1010.64 9 1010.43 9.136 1010.16 9.232C1009.88 9.328 1009.56 9.376 1009.17 9.376C1008.79 9.376 1008.45 9.328 1008.17 9.232C1007.9 9.136 1007.69 9 1007.56 8.84C1007.42 8.672 1007.32 8.504 1007.27 8.328C1007.21 8.16 1007.18 7.976 1007.18 7.776V5.2H1005.29V7.88C1005.29 8.048 1005.3 8.208 1005.32 8.376C1005.35 8.536 1005.4 8.72 1005.47 8.912C1005.54 9.112 1005.64 9.296 1005.75 9.472C1005.86 9.648 1006.02 9.816 1006.21 9.984C1006.4 10.152 1006.63 10.296 1006.88 10.416C1007.14 10.536 1007.45 10.632 1007.82 10.704C1008.19 10.776 1008.6 10.808 1009.04 10.808H1009.34Z" fill="white"/>
<path d="M1015.3 5.2V10.8H1017.18V7.088L1021.32 10.8H1023.21V5.2H1021.32V8.72L1017.43 5.2H1015.3Z" fill="white"/>
<path d="M1029.68 5.104C1029.14 5.104 1028.66 5.136 1028.22 5.208C1027.79 5.272 1027.42 5.36 1027.12 5.472C1026.84 5.584 1026.58 5.72 1026.36 5.88C1026.14 6.04 1025.97 6.2 1025.84 6.36C1025.72 6.52 1025.63 6.696 1025.56 6.888C1025.48 7.08 1025.43 7.256 1025.41 7.4C1025.39 7.552 1025.38 7.704 1025.38 7.872V8.096C1025.38 8.256 1025.39 8.416 1025.41 8.568C1025.43 8.712 1025.48 8.888 1025.56 9.08C1025.63 9.272 1025.72 9.448 1025.84 9.616C1025.97 9.776 1026.14 9.936 1026.36 10.104C1026.59 10.264 1026.84 10.4 1027.13 10.52C1027.42 10.632 1027.79 10.72 1028.22 10.792C1028.66 10.864 1029.14 10.896 1029.68 10.896H1029.93C1030.47 10.896 1030.95 10.864 1031.38 10.792C1031.82 10.72 1032.18 10.632 1032.47 10.52C1032.76 10.4 1033.01 10.264 1033.24 10.104C1033.46 9.936 1033.63 9.776 1033.75 9.616C1033.87 9.448 1033.96 9.272 1034.04 9.08C1034.12 8.888 1034.17 8.712 1034.19 8.568C1034.21 8.416 1034.22 8.256 1034.22 8.096V7.872C1034.22 7.704 1034.21 7.552 1034.19 7.4C1034.17 7.248 1034.12 7.08 1034.04 6.888C1033.96 6.696 1033.87 6.52 1033.74 6.36C1033.62 6.2 1033.45 6.04 1033.23 5.88C1033.01 5.72 1032.76 5.584 1032.47 5.472C1032.17 5.36 1031.81 5.272 1031.38 5.208C1030.95 5.136 1030.47 5.104 1029.93 5.104H1029.68ZM1032.22 8.032C1032.22 8.208 1032.19 8.384 1032.12 8.544C1032.05 8.704 1031.93 8.864 1031.76 9.016C1031.6 9.176 1031.34 9.304 1031 9.392C1030.7 9.48 1030.34 9.52 1029.93 9.536C1029.87 9.536 1029.77 9.536 1029.73 9.536C1029.29 9.528 1028.91 9.48 1028.59 9.392C1028.24 9.296 1028 9.168 1027.83 9.008C1027.67 8.848 1027.55 8.688 1027.48 8.528C1027.41 8.368 1027.38 8.192 1027.38 8.016V7.928C1027.38 6.976 1028.16 6.488 1029.7 6.456C1029.75 6.456 1029.89 6.456 1029.96 6.464C1030.28 6.472 1030.56 6.496 1030.8 6.552C1031.1 6.616 1031.34 6.696 1031.52 6.792C1031.69 6.88 1031.84 7 1031.94 7.136C1032.05 7.272 1032.12 7.4 1032.16 7.528C1032.2 7.648 1032.22 7.784 1032.22 7.928V8.032Z" fill="white"/>
<path d="M1105.22 10.2321L1110.02 8.76807V7.25607L1105.22 5.76807V7.20807L1108.47 8.01207L1105.22 8.80407V10.2321Z" fill="white"/>
<path fill-rule="evenodd" clip-rule="evenodd" d="M1188.77 2.25C1189.18 2.25 1189.52 2.58579 1189.52 3V5.93934L1191.74 3.71967C1192.03 3.42678 1192.51 3.42678 1192.8 3.71967C1193.09 4.01256 1193.09 4.48744 1192.8 4.78033L1190.58 7H1193.52C1193.93 7 1194.27 7.33579 1194.27 7.75C1194.27 8.16421 1193.93 8.5 1193.52 8.5H1190.58L1192.8 10.7197C1193.09 11.0126 1193.09 11.4874 1192.8 11.7803C1192.51 12.0732 1192.03 12.0732 1191.74 11.7803L1189.52 9.56066V12.5C1189.52 12.9142 1189.18 13.25 1188.77 13.25C1188.36 13.25 1188.02 12.9142 1188.02 12.5V9.56066L1185.8 11.7803C1185.51 12.0732 1185.03 12.0732 1184.74 11.7803C1184.45 11.4874 1184.45 11.0126 1184.74 10.7197L1186.96 8.5H1184.02C1183.61 8.5 1183.27 8.16421 1183.27 7.75C1183.27 7.33579 1183.61 7 1184.02 7H1186.96L1184.74 4.78033C1184.45 4.48744 1184.45 4.01256 1184.74 3.71967C1185.03 3.42678 1185.51 3.42678 1185.8 3.71967L1188.02 5.93934V3C1188.02 2.58579 1188.36 2.25 1188.77 2.25Z" fill="white"/>
<path d="M1197.02 10.792H1202.3C1203.99 10.792 1204.84 10.256 1204.84 9.176V9.072C1204.84 8.84 1204.79 8.632 1204.69 8.456C1204.6 8.272 1204.48 8.128 1204.32 8.024C1204.17 7.928 1204.04 7.848 1203.91 7.792C1203.78 7.736 1203.65 7.688 1203.52 7.664C1203.61 7.64 1203.71 7.6 1203.8 7.552C1203.89 7.512 1204 7.448 1204.11 7.36C1204.23 7.28 1204.32 7.168 1204.39 7.032C1204.45 6.896 1204.49 6.736 1204.49 6.568V6.464C1204.49 6.088 1204.32 5.776 1203.98 5.536C1203.64 5.296 1203.07 5.184 1202.25 5.184H1197.02V10.792ZM1198.93 6.368H1201.92C1202.37 6.368 1202.59 6.512 1202.59 6.808V6.824C1202.59 7.128 1202.37 7.28 1201.92 7.28H1198.93V6.368ZM1202.09 8.472C1202.6 8.472 1202.84 8.64 1202.84 8.992V9.016C1202.84 9.168 1202.79 9.296 1202.68 9.4C1202.57 9.512 1202.37 9.568 1202.09 9.568H1198.93V8.472H1202.09Z" fill="white"/>
<path d="M1208.92 8.816H1211.42C1211.88 8.816 1212.21 8.888 1212.4 9.048C1212.59 9.2 1212.69 9.448 1212.69 9.8V10.448C1212.69 10.608 1212.69 10.8 1212.69 10.8H1214.61C1214.61 10.8 1214.61 10.416 1214.61 10.08V9.256C1214.61 8.912 1214.5 8.64 1214.29 8.424C1214.07 8.208 1213.79 8.056 1213.45 7.968C1214.21 7.744 1214.58 7.336 1214.58 6.744V6.656C1214.58 5.688 1213.7 5.2 1211.94 5.2H1207.02V10.8H1208.92V8.816ZM1208.92 6.472H1211.82C1212.08 6.472 1212.27 6.52 1212.4 6.624C1212.53 6.72 1212.59 6.856 1212.59 7.016V7.024C1212.59 7.184 1212.53 7.32 1212.4 7.424C1212.27 7.52 1212.08 7.568 1211.82 7.568H1208.92V6.472Z" fill="white"/>
<path d="M1220.96 5.104C1220.42 5.104 1219.94 5.136 1219.5 5.208C1219.07 5.272 1218.7 5.36 1218.4 5.472C1218.12 5.584 1217.86 5.72 1217.64 5.88C1217.42 6.04 1217.25 6.2 1217.12 6.36C1217 6.52 1216.91 6.696 1216.84 6.888C1216.76 7.08 1216.71 7.256 1216.69 7.4C1216.67 7.552 1216.66 7.704 1216.66 7.872V8.096C1216.66 8.256 1216.67 8.416 1216.69 8.568C1216.71 8.712 1216.76 8.888 1216.84 9.08C1216.91 9.272 1217 9.448 1217.12 9.616C1217.25 9.776 1217.42 9.936 1217.64 10.104C1217.87 10.264 1218.12 10.4 1218.41 10.52C1218.7 10.632 1219.07 10.72 1219.5 10.792C1219.94 10.864 1220.42 10.896 1220.96 10.896H1221.21C1221.75 10.896 1222.23 10.864 1222.66 10.792C1223.1 10.72 1223.46 10.632 1223.75 10.52C1224.04 10.4 1224.29 10.264 1224.52 10.104C1224.74 9.936 1224.91 9.776 1225.03 9.616C1225.15 9.448 1225.24 9.272 1225.32 9.08C1225.4 8.888 1225.45 8.712 1225.47 8.568C1225.49 8.416 1225.5 8.256 1225.5 8.096V7.872C1225.5 7.704 1225.49 7.552 1225.47 7.4C1225.45 7.248 1225.4 7.08 1225.32 6.888C1225.24 6.696 1225.15 6.52 1225.02 6.36C1224.9 6.2 1224.73 6.04 1224.51 5.88C1224.29 5.72 1224.04 5.584 1223.75 5.472C1223.45 5.36 1223.09 5.272 1222.66 5.208C1222.23 5.136 1221.75 5.104 1221.21 5.104H1220.96ZM1223.5 8.032C1223.5 8.208 1223.47 8.384 1223.4 8.544C1223.33 8.704 1223.21 8.864 1223.04 9.016C1222.88 9.176 1222.62 9.304 1222.28 9.392C1221.98 9.48 1221.62 9.52 1221.21 9.536C1221.15 9.536 1221.05 9.536 1221.01 9.536C1220.57 9.528 1220.19 9.48 1219.87 9.392C1219.52 9.296 1219.28 9.168 1219.11 9.008C1218.95 8.848 1218.83 8.688 1218.76 8.528C1218.69 8.368 1218.66 8.192 1218.66 8.016V7.928C1218.66 6.976 1219.44 6.488 1220.98 6.456C1221.03 6.456 1221.17 6.456 1221.24 6.464C1221.56 6.472 1221.84 6.496 1222.08 6.552C1222.38 6.616 1222.62 6.696 1222.8 6.792C1222.97 6.88 1223.12 7 1223.22 7.136C1223.33 7.272 1223.4 7.4 1223.44 7.528C1223.48 7.648 1223.5 7.784 1223.5 7.928V8.032Z" fill="white"/>
<path d="M1227.67 10.8H1229.5V6.92L1231.91 10.8H1232.93L1235.33 6.92V10.8H1237.22V5.2H1234.6L1232.48 8.688L1230.38 5.2H1227.67V10.8Z" fill="white"/>
<path d="M1243.54 10.808C1244.13 10.808 1244.65 10.736 1245.1 10.6C1245.56 10.464 1245.92 10.288 1246.18 10.08C1246.44 9.872 1246.66 9.632 1246.82 9.36C1246.98 9.08 1247.1 8.824 1247.16 8.584C1247.22 8.352 1247.24 8.112 1247.24 7.88V5.2H1245.35V7.776C1245.35 7.976 1245.33 8.16 1245.27 8.328C1245.22 8.504 1245.11 8.672 1244.98 8.84C1244.84 9 1244.63 9.136 1244.36 9.232C1244.09 9.328 1243.76 9.376 1243.38 9.376C1242.99 9.376 1242.66 9.328 1242.38 9.232C1242.1 9.136 1241.9 9 1241.76 8.84C1241.62 8.672 1241.53 8.504 1241.47 8.328C1241.42 8.16 1241.38 7.976 1241.38 7.776V5.2H1239.5V7.88C1239.5 8.048 1239.5 8.208 1239.53 8.376C1239.55 8.536 1239.6 8.72 1239.67 8.912C1239.74 9.112 1239.84 9.296 1239.95 9.472C1240.06 9.648 1240.22 9.816 1240.42 9.984C1240.61 10.152 1240.83 10.296 1241.09 10.416C1241.34 10.536 1241.66 10.632 1242.02 10.704C1242.39 10.776 1242.8 10.808 1243.25 10.808H1243.54Z" fill="white"/>
<path d="M1249.5 5.2V10.8H1251.38V7.088L1255.53 10.8H1257.41V5.2H1255.53V8.72L1251.63 5.2H1249.5Z" fill="white"/>
<path d="M1263.88 5.104C1263.34 5.104 1262.86 5.136 1262.42 5.208C1261.99 5.272 1261.62 5.36 1261.33 5.472C1261.04 5.584 1260.78 5.72 1260.57 5.88C1260.34 6.04 1260.18 6.2 1260.05 6.36C1259.93 6.52 1259.83 6.696 1259.76 6.888C1259.68 7.08 1259.63 7.256 1259.62 7.4C1259.59 7.552 1259.58 7.704 1259.58 7.872V8.096C1259.58 8.256 1259.59 8.416 1259.62 8.568C1259.63 8.712 1259.68 8.888 1259.76 9.08C1259.83 9.272 1259.93 9.448 1260.05 9.616C1260.18 9.776 1260.34 9.936 1260.57 10.104C1260.79 10.264 1261.05 10.4 1261.34 10.52C1261.62 10.632 1261.99 10.72 1262.42 10.792C1262.86 10.864 1263.34 10.896 1263.88 10.896H1264.14C1264.67 10.896 1265.15 10.864 1265.58 10.792C1266.02 10.72 1266.38 10.632 1266.67 10.52C1266.96 10.4 1267.22 10.264 1267.44 10.104C1267.66 9.936 1267.83 9.776 1267.95 9.616C1268.07 9.448 1268.17 9.272 1268.25 9.08C1268.32 8.888 1268.38 8.712 1268.39 8.568C1268.42 8.416 1268.42 8.256 1268.42 8.096V7.872C1268.42 7.704 1268.42 7.552 1268.39 7.4C1268.38 7.248 1268.32 7.08 1268.25 6.888C1268.17 6.696 1268.07 6.52 1267.94 6.36C1267.82 6.2 1267.66 6.04 1267.43 5.88C1267.22 5.72 1266.96 5.584 1266.67 5.472C1266.38 5.36 1266.02 5.272 1265.58 5.208C1265.15 5.136 1264.67 5.104 1264.14 5.104H1263.88ZM1266.42 8.032C1266.42 8.208 1266.39 8.384 1266.32 8.544C1266.26 8.704 1266.14 8.864 1265.97 9.016C1265.8 9.176 1265.54 9.304 1265.2 9.392C1264.9 9.48 1264.54 9.52 1264.14 9.536C1264.07 9.536 1263.98 9.536 1263.94 9.536C1263.5 9.528 1263.11 9.48 1262.79 9.392C1262.45 9.296 1262.2 9.168 1262.03 9.008C1261.87 8.848 1261.75 8.688 1261.69 8.528C1261.62 8.368 1261.58 8.192 1261.58 8.016V7.928C1261.58 6.976 1262.36 6.488 1263.9 6.456C1263.95 6.456 1264.1 6.456 1264.17 6.464C1264.48 6.472 1264.76 6.496 1265.01 6.552C1265.3 6.616 1265.54 6.696 1265.72 6.792C1265.9 6.88 1266.04 7 1266.14 7.136C1266.26 7.272 1266.33 7.4 1266.37 7.528C1266.41 7.648 1266.42 7.784 1266.42 7.928V8.032Z" fill="white"/>
</svg>
