<svg width="269" height="46" viewBox="0 0 269 46" fill="none" xmlns="http://www.w3.org/2000/svg">
<path d="M7.94176 14.7353C9.50176 13.9553 10.3418 11.7353 11.1818 10.2353L12.3818 10.8353C11.5418 12.3953 10.4018 14.2553 10.4018 16.0553V44.0753H18.2618V2.07525H8.72176C8.72176 6.09526 5.18176 9.27525 0.801758 9.27525V16.4753C3.02176 16.4753 5.72176 15.8153 7.94176 14.7353Z" fill="#508559"/>
<path d="M28.7079 23.0753C28.7079 35.5553 34.6478 45.0353 46.2878 45.0353C57.9279 45.0353 63.8079 35.5553 63.8079 23.0753C63.8079 10.5953 57.9279 1.17525 46.2878 1.17525C34.6478 1.17525 28.7079 10.5953 28.7079 23.0753ZM36.8078 23.1353C36.8078 15.6953 39.5079 8.97525 46.2878 8.97525C53.0079 8.97525 55.7079 15.6953 55.7079 23.1353C55.7079 30.5153 53.0079 37.2953 46.2878 37.2953C39.5079 37.2953 36.8078 30.5153 36.8078 23.1353Z" fill="#508559"/>
<path d="M64.45 23.0753C64.45 35.5553 70.39 45.0353 82.03 45.0353C93.67 45.0353 99.55 35.5553 99.55 23.0753C99.55 10.5953 93.67 1.17525 82.03 1.17525C70.39 1.17525 64.45 10.5953 64.45 23.0753ZM72.55 23.1353C72.55 15.6953 75.25 8.97525 82.03 8.97525C88.75 8.97525 91.45 15.6953 91.45 23.1353C91.45 30.5153 88.75 37.2953 82.03 37.2953C75.25 37.2953 72.55 30.5153 72.55 23.1353Z" fill="#508559"/>
<path d="M110.692 0.635254C114.052 0.635254 116.592 1.81525 118.312 4.17525C120.072 6.49525 120.952 9.77525 120.952 14.0153C120.952 18.2553 120.132 21.5753 118.492 23.9753C116.852 26.3353 114.252 27.5153 110.692 27.5153C108.492 27.5153 106.632 26.9753 105.112 25.8953C103.632 24.8153 102.512 23.2753 101.752 21.2753C100.992 19.2353 100.612 16.8153 100.612 14.0153C100.612 9.77525 101.412 6.49525 103.012 4.17525C104.612 1.81525 107.172 0.635254 110.692 0.635254ZM110.752 6.75525C109.792 6.75525 109.092 7.35525 108.652 8.55526C108.212 9.75525 107.992 11.5953 107.992 14.0753C107.992 16.5153 108.212 18.3553 108.652 19.5953C109.092 20.8353 109.792 21.4553 110.752 21.4553C111.712 21.4553 112.412 20.8353 112.852 19.5953C113.332 18.3553 113.572 16.5153 113.572 14.0753C113.572 11.5953 113.332 9.75525 112.852 8.55526C112.412 7.35525 111.712 6.75525 110.752 6.75525ZM141.112 1.23525L117.352 44.0753H110.332L134.092 1.23525H141.112ZM140.692 17.7353C142.932 17.7353 144.812 18.2753 146.332 19.3553C147.852 20.3953 148.992 21.9153 149.752 23.9153C150.552 25.8753 150.952 28.2753 150.952 31.1153C150.952 35.3553 150.132 38.6753 148.492 41.0753C146.852 43.4353 144.252 44.6153 140.692 44.6153C138.492 44.6153 136.632 44.0753 135.112 42.9953C133.632 41.9153 132.512 40.3753 131.752 38.3753C130.992 36.3353 130.612 33.9153 130.612 31.1153C130.612 26.8753 131.412 23.5953 133.012 21.2753C134.612 18.9153 137.172 17.7353 140.692 17.7353ZM140.752 23.8553C139.792 23.8553 139.092 24.4553 138.652 25.6553C138.212 26.8553 137.992 28.6953 137.992 31.1753C137.992 33.6153 138.212 35.4553 138.652 36.6953C139.092 37.9353 139.792 38.5553 140.752 38.5553C141.712 38.5553 142.412 37.9553 142.852 36.7553C143.332 35.5153 143.572 33.6553 143.572 31.1753C143.572 28.6953 143.332 26.8553 142.852 25.6553C142.412 24.4553 141.712 23.8553 140.752 23.8553Z" fill="#508559"/>
<path d="M186.494 26.5553C196.154 26.5553 203.474 24.1553 203.474 14.0753C203.474 3.99525 196.094 2.07525 187.154 2.07525H171.434V44.0753H179.294V26.4953C182.354 26.5553 184.934 26.5553 186.494 26.5553ZM179.294 19.9553V8.73525H185.894C191.414 8.73525 195.794 8.79526 195.794 14.0753C195.794 19.5353 191.054 19.9553 185.894 19.9553H179.294Z" fill="#508559"/>
<path d="M217.665 16.1753C215.805 17.5553 214.845 20.5553 213.945 22.6553L212.685 22.1153C213.585 20.0153 214.845 17.2553 214.845 14.9753V14.0753H207.525V44.0753H214.845V30.9953C214.845 22.6553 222.585 20.0153 230.025 20.0153V13.1753C224.145 13.1753 220.845 13.7153 217.665 16.1753Z" fill="#508559"/>
<path d="M233.803 29.0153C233.803 38.6753 240.583 45.0353 250.903 45.0353C261.283 45.0353 268.063 38.3153 268.063 29.0153C268.063 19.7753 261.283 13.1753 250.903 13.1753C240.583 13.1753 233.803 19.3553 233.803 29.0153ZM241.603 29.0153C241.603 24.0953 244.243 20.2553 250.903 20.2553C257.563 20.2553 260.263 24.0953 260.263 29.0153C260.263 33.9353 257.563 37.9553 250.903 37.9553C244.303 37.9553 241.603 33.9353 241.603 29.0153Z" fill="#508559"/>
</svg>
