<svg width="134" height="36" viewBox="0 0 134 36" fill="none" xmlns="http://www.w3.org/2000/svg">
<path d="M132.415 34.17H1.58496C1.58496 34.17 4.96496 29.98 13.355 30.17C13.355 30.17 15.915 19.17 22.905 19.17C29.895 19.17 32.455 28.72 32.455 28.72C32.455 28.72 35.955 15.44 42.245 15.44C48.535 15.44 50.635 27.56 50.635 27.56C50.635 27.56 49.935 1 60.885 1C71.835 1 69.975 27.79 69.975 27.79C69.975 27.79 72.535 18.7 79.755 18.7C86.975 18.7 86.985 28.96 86.985 28.96C86.985 28.96 94.905 14.96 102.595 29.19C102.595 29.32 127.755 25.55 132.415 34.17Z" fill="white" stroke="#222221" stroke-width="2" stroke-linecap="round" stroke-linejoin="round"/>
<path d="M23.3253 21.82C21.6047 22.4571 20.1178 23.601 19.0608 25.1007C18.0039 26.6004 17.4266 28.3854 17.4053 30.22C17.4164 30.3326 17.455 30.4408 17.5178 30.535C17.5806 30.6291 17.6656 30.7064 17.7653 30.76C17.8953 30.83 18.1353 30.86 18.1453 30.64C18.2192 28.9045 18.7772 27.2242 19.7563 25.7892C20.7353 24.3543 22.0963 23.2219 23.6853 22.52C24.0253 22.38 23.6153 21.71 23.3253 21.82Z" fill="#222221"/>
<path d="M22.9149 24.32L23.0349 24.23H22.9649C22.9358 24.2578 22.9091 24.2879 22.8849 24.32L22.7649 24.48L22.5549 24.79C22.422 24.9993 22.3082 25.2202 22.2149 25.45C22.0105 25.9219 21.892 26.4265 21.8649 26.94C21.8623 27.0619 21.8902 27.1824 21.9461 27.2907C22.0019 27.399 22.0841 27.4916 22.1849 27.56C22.3149 27.65 22.6049 27.72 22.6149 27.47C22.6703 26.546 22.9973 25.6589 23.5549 24.92C23.5899 24.8334 23.5899 24.7366 23.5549 24.65C23.51 24.5395 23.4456 24.4379 23.3649 24.35C23.2349 24.23 23.0449 24.12 22.9049 24.29L22.9149 24.32Z" fill="#222221"/>
<path d="M26.5947 26.0701C26.6947 26.2901 26.8047 26.3601 26.9347 26.2801C26.9853 26.2623 27.0302 26.2312 27.0647 26.1901C27.1133 26.1437 27.1538 26.0897 27.1847 26.0301C27.2264 25.9767 27.257 25.9155 27.2747 25.8501V25.7301C27.2898 25.6575 27.2898 25.5827 27.2747 25.5101V25.4301C27.2558 25.4089 27.2327 25.3917 27.2069 25.3797C27.1811 25.3677 27.1532 25.361 27.1247 25.3601C27.3747 25.3601 27.3447 26.6001 27.3547 26.2501V26.0101C27.3529 25.8423 27.3362 25.675 27.3047 25.5101C27.2852 25.4548 27.246 25.4085 27.1947 25.3801C27.1561 25.3655 27.1134 25.3655 27.0747 25.3801C27.0239 25.3815 26.9749 25.399 26.9347 25.4301C26.871 25.4754 26.8138 25.5292 26.7647 25.5901C26.7148 25.6683 26.6745 25.7522 26.6447 25.8401C26.6288 25.9193 26.6288 26.0009 26.6447 26.0801L26.5947 26.0701Z" fill="#222221"/>
<path d="M41.9751 18.39C41.7106 18.4633 41.4717 18.6087 41.2851 18.81L40.8251 19.32C40.5351 19.64 40.2651 19.98 40.0051 20.32C39.4349 21.071 38.9266 21.8669 38.4851 22.7C37.5906 24.3205 36.9817 26.0829 36.6851 27.91C36.6851 28.19 37.1951 28.77 37.3051 28.34C37.7436 26.5964 38.3882 24.9113 39.2251 23.32C39.6328 22.552 40.0939 21.8135 40.6051 21.11C40.8751 20.74 41.1551 20.38 41.4451 20.02C41.5951 19.84 41.7451 19.67 41.9051 19.5C42.0188 19.4029 42.1092 19.2815 42.1698 19.1448C42.2304 19.008 42.2595 18.8595 42.2551 18.71C42.2551 18.56 42.2551 18.34 42.0151 18.41L41.9751 18.39Z" fill="#222221"/>
<path d="M42.9049 21.3201C42.8449 20.9901 42.8549 21.0901 42.8049 21.2101L42.7449 21.3601L42.6449 21.6001L42.4149 22.1601C42.2649 22.5301 42.1249 22.9001 41.9849 23.2701C41.9551 23.3754 41.9563 23.4869 41.9882 23.5916C42.0201 23.6962 42.0814 23.7894 42.1649 23.8601C42.2649 23.9501 42.5549 24.1401 42.6449 23.9301C42.8249 23.4601 42.9949 23.0001 43.1649 22.5301L43.4049 21.8401C43.4049 21.7801 43.4049 21.7301 43.4749 21.6701C43.4955 21.5543 43.4955 21.4359 43.4749 21.3201C43.4944 21.2177 43.4944 21.1125 43.4749 21.0101C43.4626 20.9882 43.4459 20.969 43.4258 20.9539C43.4057 20.9388 43.3827 20.9281 43.3582 20.9225C43.3337 20.9168 43.3083 20.9163 43.2836 20.9211C43.2589 20.9259 43.2355 20.9358 43.2149 20.9501C43.1585 20.9813 43.1077 21.0219 43.0649 21.0701C43.0649 21.0701 42.9149 21.2501 42.9249 21.3201H42.9049Z" fill="#222221"/>
<path d="M62.2848 3.98007C59.0548 4.61007 57.1748 8.18007 56.2848 11.0301C55.7887 12.8708 55.3915 14.7368 55.0948 16.6201C54.7048 18.7901 54.2748 20.9601 53.9548 23.1401C53.9048 23.4701 54.5748 24.1401 54.6848 23.6401C55.5148 19.8701 55.9348 15.9901 56.9348 12.2601C57.334 10.5655 58.061 8.96539 59.0748 7.55007C59.5651 6.89643 60.144 6.31419 60.7948 5.82007C61.3548 5.41007 62.1448 5.21007 62.4548 4.59007C62.5648 4.37007 62.6248 3.91007 62.2548 3.98007H62.2848Z" fill="#222221"/>
<path d="M62.2252 7.03005C61.9352 7.13005 61.8652 7.10005 61.7152 7.32005C61.5652 7.54005 61.5552 7.58005 61.4752 7.72005C61.3952 7.86005 61.1852 8.25005 61.0552 8.52005C60.8051 9.04601 60.588 9.58706 60.4052 10.1401C60.0248 11.2864 59.8159 12.4826 59.7852 13.6901C59.7835 13.8117 59.8118 13.932 59.8676 14.0401C59.9234 14.1483 60.005 14.241 60.1052 14.3101C60.2352 14.4001 60.5252 14.4601 60.5352 14.2201C60.5919 13.0734 60.79 11.9381 61.1252 10.8401C61.2934 10.2828 61.5006 9.73816 61.7452 9.21005C61.8552 8.96005 61.9752 8.72005 62.0952 8.49005C62.2152 8.26005 62.2452 8.22005 62.3252 8.08005C62.4571 7.86058 62.5166 7.60519 62.4952 7.35005C62.4952 7.19005 62.4952 6.95005 62.2252 7.03005Z" fill="#222221"/>
<path d="M63.1248 12.67L63.0548 12.57V12.66V12.74V12.93C63.0548 13.05 63.0548 13.18 63.0548 13.3C63.0482 13.4079 63.0725 13.5154 63.1248 13.61C63.1788 13.7255 63.2614 13.8253 63.3647 13.9C63.4412 13.9603 63.5378 13.9889 63.6348 13.98C63.6728 13.968 63.7069 13.9458 63.7333 13.9158C63.7598 13.8859 63.7775 13.8493 63.7847 13.81C63.7847 13.7 63.7847 13.6 63.8547 13.49L63.9148 13.18L63.9647 12.86C63.9697 12.8068 63.9697 12.7532 63.9647 12.7C63.9849 12.5273 63.9849 12.3528 63.9647 12.18C63.9571 12.1516 63.9433 12.1252 63.9243 12.1027C63.9053 12.0803 63.8815 12.0623 63.8547 12.05C63.7922 12.0302 63.725 12.0302 63.6624 12.0499C63.5998 12.0696 63.5448 12.108 63.5047 12.16C63.4437 12.2214 63.3931 12.2924 63.3547 12.37C63.3132 12.4478 63.2861 12.5325 63.2748 12.62L63.1248 12.67Z" fill="#222221"/>
<path d="M81.1253 21.67C79.4753 20.97 77.8553 22.04 76.9953 23.42C76.5433 24.2057 76.1842 25.0414 75.9253 25.91C75.6081 26.884 75.4002 27.8902 75.3053 28.91C75.3002 29.0284 75.3262 29.146 75.3806 29.2512C75.4349 29.3565 75.5159 29.4457 75.6153 29.51C75.7553 29.61 76.0053 29.65 76.0353 29.42C76.2641 27.6978 76.7849 26.0272 77.5753 24.48C78.2653 23.23 79.6453 21.97 81.1953 22.48C81.7453 22.64 81.4353 21.84 81.1253 21.71V21.67Z" fill="#222221"/>
<path d="M81.1549 24.05C81.2549 24.05 81.2449 24.05 81.1549 24.05H81.105H81.045L80.935 24.1501C80.8567 24.2183 80.7832 24.2918 80.715 24.37C80.5709 24.5288 80.4405 24.6994 80.325 24.8801C80.0901 25.235 79.927 25.6325 79.8449 26.05C79.8378 26.1687 79.8628 26.2871 79.9174 26.3927C79.972 26.4983 80.054 26.5872 80.1549 26.6501C80.2314 26.7103 80.328 26.7389 80.4249 26.73C80.4625 26.7171 80.4961 26.6946 80.5224 26.6648C80.5486 26.635 80.5668 26.5989 80.575 26.5601V26.49C80.575 26.49 80.5749 26.4101 80.6249 26.3601C80.6575 26.2782 80.6942 26.1981 80.7349 26.12C80.8057 25.9456 80.8928 25.7782 80.995 25.62C81.0425 25.5395 81.096 25.4626 81.1549 25.39C81.1783 25.3511 81.205 25.3143 81.2349 25.28L81.295 25.2201L81.385 25.1301C81.4534 25.0582 81.527 24.9914 81.605 24.93C81.775 24.79 81.655 24.49 81.545 24.35C81.435 24.21 81.1849 23.9701 81.0049 24.1101L81.1549 24.05Z" fill="#222221"/>
<path d="M96.4049 26.01C95.8751 25.7544 95.2861 25.6464 94.7001 25.6974C94.114 25.7484 93.5526 25.9566 93.0749 26.3C92.1378 27.0074 91.4567 28.0009 91.1349 29.13C91.0349 29.42 91.6849 30.06 91.8249 29.71C92.1649 28.7276 92.7707 27.8587 93.5749 27.2C93.9784 26.8813 94.457 26.6715 94.9648 26.591C95.4726 26.5104 95.9926 26.5618 96.4749 26.74C96.5089 26.7614 96.5485 26.7721 96.5885 26.7706C96.6286 26.7692 96.6674 26.7558 96.6997 26.732C96.7321 26.7083 96.7566 26.6754 96.77 26.6376C96.7834 26.5998 96.7851 26.5588 96.7749 26.52C96.7607 26.4109 96.7193 26.3071 96.6547 26.218C96.5901 26.1289 96.5042 26.0574 96.4049 26.01Z" fill="#222221"/>
<path d="M110.095 31.6401C111.896 31.4451 113.714 31.4451 115.515 31.6401C115.985 31.6401 115.595 30.8701 115.265 30.8301C113.417 30.5703 111.543 30.5703 109.695 30.8301C109.295 30.8901 109.745 31.6801 110.095 31.6401Z" fill="#222221"/>
</svg>
