<svg width="116" height="30" viewBox="0 0 116 30" fill="none" xmlns="http://www.w3.org/2000/svg">
<path d="M1.14502 28.0699H114.855C114.855 28.0699 104.375 21.0699 92.255 24.5699C92.255 24.5699 87.125 16.4199 80.375 16.4199C78.3792 16.4604 76.4279 17.0179 74.712 18.038C72.9961 19.0581 71.5741 20.5059 70.585 22.2399C70.585 22.2399 67.315 1.92993 54.745 1.92993C42.175 1.92993 38.425 22.6699 38.425 22.6699C38.425 22.6699 38.265 17.5399 30.655 17.5399C23.045 17.5399 22.355 22.6699 22.355 22.6699C22.355 22.6699 10.005 19.2099 1.14502 28.0699Z" fill="white" stroke="#222221" stroke-width="2" stroke-linecap="round" stroke-linejoin="round"/>
<path d="M52.755 5.38988C52.1453 5.64353 51.5889 6.00994 51.115 6.46989C50.595 6.88989 50.115 7.33988 49.625 7.80988C48.7209 8.68748 47.8976 9.64468 47.165 10.6699C45.6516 12.7575 44.5208 15.0971 43.825 17.5799C43.735 17.9099 44.375 18.5299 44.525 18.0699C45.2746 15.6693 46.3912 13.3991 47.835 11.3399C48.5505 10.315 49.3463 9.34861 50.215 8.44988C50.655 7.98988 51.115 7.54988 51.595 7.12988C51.805 6.94988 52.025 6.75989 52.255 6.57989C52.485 6.39989 52.785 6.20988 52.945 5.74988C52.995 5.60988 52.945 5.31988 52.755 5.38988Z" fill="#222221"/>
<path d="M54.4151 6.60992H54.3551L54.2652 6.69992L54.0451 6.88992L53.6351 7.26992C53.3551 7.52992 53.0951 7.79993 52.8351 8.07993C52.5751 8.35993 52.7751 8.43993 52.8851 8.58993C52.9428 8.67962 53.0265 8.74943 53.1251 8.78992C53.1604 8.80918 53.1999 8.81927 53.2401 8.81927C53.2803 8.81927 53.3199 8.80918 53.3551 8.78992C53.6351 8.55992 53.9151 8.31992 54.1751 8.06992L54.9651 7.30992C55.1151 7.15992 55.0251 6.90992 54.9651 6.76992C54.9007 6.67375 54.8107 6.59755 54.7052 6.54993C54.6352 6.54993 54.5351 6.54993 54.4651 6.54993L54.4151 6.60992Z" fill="#222221"/>
<path d="M51.5249 11.3199H51.5949H51.5149L51.4449 11.3899C51.3933 11.435 51.3463 11.4852 51.3049 11.5399C51.2006 11.6429 51.1037 11.7532 51.0149 11.8699C50.8375 12.0901 50.6834 12.328 50.5549 12.5799C50.2897 13.0923 50.1171 13.6475 50.0449 14.2199C50.0441 14.3195 50.0673 14.4179 50.1125 14.5067C50.1578 14.5955 50.2238 14.672 50.3049 14.7299C50.4349 14.8099 50.6249 14.8399 50.6649 14.6499C50.8709 13.6571 51.3407 12.7382 52.0249 11.9899C52.1549 11.8499 52.0749 11.6399 52.0249 11.4999C51.9749 11.3599 51.7149 11.1799 51.5749 11.3099L51.5249 11.3199Z" fill="#222221"/>
<path d="M32.9349 20.2599C31.8004 19.7661 30.5421 19.6307 29.3286 19.872C28.1151 20.1133 27.0042 20.7197 26.1449 21.6099C25.8749 21.9099 26.4449 22.7099 26.7349 22.4299C27.5515 21.6413 28.575 21.1006 29.6867 20.8705C30.7983 20.6404 31.9524 20.7303 33.0149 21.1299C33.2249 21.2199 33.3849 21.1299 33.3749 20.8699C33.3581 20.7397 33.309 20.6157 33.2322 20.5092C33.1554 20.4027 33.0532 20.317 32.9349 20.2599Z" fill="#222221"/>
<path d="M30.3153 21.4099C30.0184 21.4888 29.7277 21.5891 29.4453 21.7099C29.1679 21.8377 28.9033 21.9917 28.6553 22.1699C28.6192 22.1996 28.5918 22.2385 28.5759 22.2825C28.5601 22.3265 28.5564 22.3739 28.5653 22.4199C28.58 22.5469 28.6284 22.6677 28.7053 22.7699C28.8353 22.9299 29.0553 23.1299 29.2653 23.0199C29.4268 22.9266 29.5938 22.8431 29.7653 22.7699H29.6853L30.0853 22.5799H30.0053C30.265 22.4705 30.5324 22.3803 30.8053 22.3099C31.0453 22.2399 30.9953 21.9199 30.9053 21.7499C30.8398 21.6217 30.7436 21.5117 30.6253 21.4299C30.538 21.359 30.4275 21.3233 30.3153 21.3299V21.4099Z" fill="#222221"/>
<path d="M17.8948 23.5899C15.6691 23.2868 13.4034 23.5024 11.2748 24.2199C10.8448 24.3699 11.3548 25.2199 11.7248 25.1099C13.8055 24.4773 15.989 24.2532 18.1548 24.4499C18.6548 24.4499 18.2448 23.6299 17.8948 23.5899Z" fill="#222221"/>
<path d="M9.02518 26.1199C9.43518 26.1199 9.80519 25.1199 9.34519 25.1199C8.88519 25.1199 8.55518 26.1199 9.02518 26.1199Z" fill="#222221"/>
<path d="M61.0251 8.92997H61.3451L61.0751 8.77997C62.3678 10.1461 63.3412 11.7821 63.9251 13.57C63.9951 13.76 64.1551 14 64.3751 14.03C64.5951 14.06 64.6351 13.84 64.5851 13.67C63.9728 11.6266 62.847 9.77438 61.3151 8.28997C61.3851 8.38997 61.4451 8.48997 61.5051 8.58997L61.4151 8.18997C61.3551 7.86997 60.9851 8.18997 60.9051 8.29997C60.8251 8.40997 60.6851 8.86997 60.9851 8.90997L61.0251 8.92997Z" fill="#222221"/>
<path d="M59.2351 13.4299L59.0951 13.5299L58.8151 13.7399C58.629 13.8927 58.4521 14.0563 58.2851 14.2299C57.2671 15.2471 56.5953 16.5592 56.3651 17.9799C56.3557 18.1119 56.3824 18.2439 56.4423 18.362C56.5022 18.48 56.5931 18.5795 56.7051 18.6499C56.8651 18.7599 57.1351 18.8099 57.1751 18.5499C57.4803 16.819 58.44 15.2721 59.8551 14.2299C60.1851 13.9899 59.5951 13.2299 59.2551 13.4099L59.2351 13.4299Z" fill="#222221"/>
<path d="M74.825 22.8299L75.225 22.6199L76.015 22.1899C76.5778 21.8726 77.1588 21.5888 77.755 21.3399C78.8013 20.8855 79.9348 20.6669 81.075 20.6999C83.285 20.8399 85.075 22.3099 87.265 22.6999C87.765 22.7899 87.265 21.9399 87.005 21.8499C84.835 21.1999 82.865 19.7499 80.555 19.6699C78.245 19.5899 76.075 20.7599 74.235 21.9999C73.905 22.2299 74.465 22.9999 74.825 22.8099V22.8299Z" fill="#222221"/>
<path d="M79.145 22.7899C80.4489 22.6699 81.7611 22.6699 83.065 22.7899C83.295 22.7899 83.335 22.5899 83.285 22.4099C83.2538 22.2923 83.192 22.185 83.106 22.0989C83.0199 22.0129 82.9126 21.9511 82.795 21.9199C81.4461 21.7148 80.0739 21.7148 78.725 21.9199C78.495 21.9199 78.565 22.2699 78.635 22.3999C78.6753 22.5042 78.7449 22.5946 78.8354 22.6602C78.9259 22.7258 79.0334 22.7639 79.145 22.7699V22.7899Z" fill="#222221"/>
<path d="M87.0851 24.7099H87.4851H87.2951C87.4177 24.7669 87.5448 24.8137 87.6751 24.8499H87.8051H87.9451H88.0251C88.0615 24.8417 88.0936 24.8204 88.1151 24.7899C88.1151 24.7899 88.1151 24.7899 88.1151 24.7299C88.1253 24.6871 88.1253 24.6426 88.1151 24.5999C88.1044 24.5307 88.0842 24.4635 88.0551 24.3999C88.0252 24.3476 87.9919 24.2975 87.9551 24.2499C87.9165 24.208 87.8728 24.171 87.8251 24.1399C87.7463 24.0826 87.6627 24.0324 87.5751 23.9899L87.3851 23.8899L87.7551 24.2599L87.4951 23.8099C87.4781 23.7864 87.4554 23.7676 87.4292 23.7554C87.4029 23.7431 87.374 23.7378 87.3451 23.7399C87.2858 23.7265 87.2243 23.7265 87.1651 23.7399C87.0585 23.818 86.9727 23.921 86.9151 24.0399C86.8251 24.2199 86.7351 24.6399 87.0351 24.6699L87.0851 24.7099Z" fill="#222221"/>
<path d="M97.3151 26.0099C98.9851 26.0699 100.655 26.0699 102.315 26.0099C102.695 26.0099 102.315 25.1599 101.975 25.1499C100.315 25.1499 98.6551 25.1499 96.9751 25.1499C96.6251 25.1499 96.9751 25.9099 97.2851 25.9199L97.3151 26.0099Z" fill="#222221"/>
<path d="M52.0753 22.2299C52.0753 21.9099 52.0753 21.8099 52.0753 21.9299C52.0753 21.9299 52.0753 22.0099 52.0753 22.0499V22.2699C52.0504 22.4558 52.0504 22.6441 52.0753 22.8299C52.0919 22.9222 52.1258 23.0104 52.1753 23.0899C52.2228 23.1786 52.2915 23.2542 52.3753 23.3099C52.4853 23.3799 52.6753 23.4499 52.7553 23.3099C52.8395 23.114 52.8837 22.9032 52.8853 22.6899C52.8853 22.5699 52.8853 22.4399 52.8853 22.3099V22.2399C52.9005 22.0836 52.9005 21.9262 52.8853 21.7699C52.867 21.7195 52.8316 21.677 52.7853 21.6499C52.7298 21.6306 52.6695 21.6299 52.6135 21.6479C52.5576 21.666 52.509 21.7018 52.4753 21.7499C52.4147 21.8017 52.3668 21.8667 52.3353 21.9399C52.2939 22.0107 52.2667 22.0888 52.2553 22.1699L52.0753 22.2299Z" fill="#222221"/>
</svg>
