<svg width="336" height="340" viewBox="0 0 336 340" fill="none" xmlns="http://www.w3.org/2000/svg">
<path d="M11.9921 54.4922V62.7322C11.9921 66.8522 8.82852 68.9857 3.82569 68.9857L3.89926 76.5635C10.1528 76.5635 19.6434 72.1493 19.6434 66.9257C19.6434 62.2172 18.3927 49.7837 22.4391 49.7837H26.6327V41.323H22.4391C18.3927 41.323 19.6434 29.2574 19.6434 24.5488C19.6434 18.9575 10.1528 14.9111 3.89926 14.9111L3.82569 22.5624C8.82852 22.5624 11.9921 24.696 11.9921 28.7424V38.9688C11.9921 43.3094 15.8178 44.7073 19.5699 44.7073V46.3259C17.142 46.3994 14.7142 47.0616 13.3899 48.6801C11.9921 50.5194 11.9921 52.2851 11.9921 54.4922Z" fill="#508559"/>
<path d="M50.1666 54.4922V62.7322C50.1666 66.8522 47.0031 68.9857 42.0003 68.9857L42.0738 76.5635C48.3274 76.5635 57.818 72.1493 57.818 66.9257C57.818 62.2172 56.5673 49.7837 60.6137 49.7837H64.8072V41.323H60.6137C56.5673 41.323 57.818 29.2574 57.818 24.5488C57.818 18.9575 48.3274 14.9111 42.0738 14.9111L42.0003 22.5624C47.0031 22.5624 50.1666 24.696 50.1666 28.7424V38.9688C50.1666 43.3094 53.9923 44.7073 57.7444 44.7073V46.3259C55.3166 46.3994 52.8888 47.0616 51.5645 48.6801C50.1666 50.5194 50.1666 52.2851 50.1666 54.4922Z" fill="#508559"/>
<path d="M88.3412 54.4922V62.7322C88.3412 66.8522 85.1776 68.9857 80.1748 68.9857L80.2484 76.5635C86.5019 76.5635 95.9926 72.1493 95.9926 66.9257C95.9926 62.2172 94.7419 49.7837 98.7883 49.7837H102.982V41.323H98.7883C94.7419 41.323 95.9926 29.2574 95.9926 24.5488C95.9926 18.9575 86.5019 14.9111 80.2484 14.9111L80.1748 22.5624C85.1776 22.5624 88.3412 24.696 88.3412 28.7424V38.9688C88.3412 43.3094 92.1669 44.7073 95.919 44.7073V46.3259C93.4912 46.3994 91.0633 47.0616 89.739 48.6801C88.3412 50.5194 88.3412 52.2851 88.3412 54.4922Z" fill="#508559"/>
<path d="M126.516 54.4922V62.7322C126.516 66.8522 123.352 68.9857 118.349 68.9857L118.423 76.5635C124.676 76.5635 134.167 72.1493 134.167 66.9257C134.167 62.2172 132.916 49.7837 136.963 49.7837H141.156V41.323H136.963C132.916 41.323 134.167 29.2574 134.167 24.5488C134.167 18.9575 124.676 14.9111 118.423 14.9111L118.349 22.5624C123.352 22.5624 126.516 24.696 126.516 28.7424V38.9688C126.516 43.3094 130.341 44.7073 134.094 44.7073V46.3259C131.666 46.3994 129.238 47.0616 127.914 48.6801C126.516 50.5194 126.516 52.2851 126.516 54.4922Z" fill="#508559"/>
<path d="M164.69 54.4922V62.7322C164.69 66.8522 161.527 68.9857 156.524 68.9857L156.598 76.5635C162.851 76.5635 172.342 72.1493 172.342 66.9257C172.342 62.2172 171.091 49.7837 175.137 49.7837H179.331V41.323H175.137C171.091 41.323 172.342 29.2574 172.342 24.5488C172.342 18.9575 162.851 14.9111 156.598 14.9111L156.524 22.5624C161.527 22.5624 164.69 24.696 164.69 28.7424V38.9688C164.69 43.3094 168.516 44.7073 172.268 44.7073V46.3259C169.84 46.3994 167.412 47.0616 166.088 48.6801C164.69 50.5194 164.69 52.2851 164.69 54.4922Z" fill="#508559"/>
<path d="M202.865 54.4922V62.7322C202.865 66.8522 199.701 68.9857 194.698 68.9857L194.772 76.5635C201.026 76.5635 210.516 72.1493 210.516 66.9257C210.516 62.2172 209.266 49.7837 213.312 49.7837H217.505V41.323H213.312C209.266 41.323 210.516 29.2574 210.516 24.5488C210.516 18.9575 201.026 14.9111 194.772 14.9111L194.698 22.5624C199.701 22.5624 202.865 24.696 202.865 28.7424V38.9688C202.865 43.3094 206.691 44.7073 210.443 44.7073V46.3259C208.015 46.3994 205.587 47.0616 204.263 48.6801C202.865 50.5194 202.865 52.2851 202.865 54.4922Z" fill="#508559"/>
<path d="M241.039 54.4922V62.7322C241.039 66.8522 237.876 68.9857 232.873 68.9857L232.947 76.5635C239.2 76.5635 248.691 72.1493 248.691 66.9257C248.691 62.2172 247.44 49.7837 251.487 49.7837H255.68V41.323H251.487C247.44 41.323 248.691 29.2574 248.691 24.5488C248.691 18.9575 239.2 14.9111 232.947 14.9111L232.873 22.5624C237.876 22.5624 241.039 24.696 241.039 28.7424V38.9688C241.039 43.3094 244.865 44.7073 248.617 44.7073V46.3259C246.189 46.3994 243.762 47.0616 242.437 48.6801C241.039 50.5194 241.039 52.2851 241.039 54.4922Z" fill="#508559"/>
<path d="M279.214 54.4922V62.7322C279.214 66.8522 276.05 68.9857 271.048 68.9857L271.121 76.5635C277.375 76.5635 286.865 72.1493 286.865 66.9257C286.865 62.2172 285.615 49.7837 289.661 49.7837H293.855V41.323H289.661C285.615 41.323 286.865 29.2574 286.865 24.5488C286.865 18.9575 277.375 14.9111 271.121 14.9111L271.048 22.5624C276.05 22.5624 279.214 24.696 279.214 28.7424V38.9688C279.214 43.3094 283.04 44.7073 286.792 44.7073V46.3259C284.364 46.3994 281.936 47.0616 280.612 48.6801C279.214 50.5194 279.214 52.2851 279.214 54.4922Z" fill="#508559"/>
<path d="M317.389 54.4922V62.7322C317.389 66.8522 314.225 68.9857 309.222 68.9857L309.296 76.5635C315.549 76.5635 325.04 72.1493 325.04 66.9257C325.04 62.2172 323.789 49.7837 327.836 49.7837H332.029V41.323H327.836C323.789 41.323 325.04 29.2574 325.04 24.5488C325.04 18.9575 315.549 14.9111 309.296 14.9111L309.222 22.5624C314.225 22.5624 317.389 24.696 317.389 28.7424V38.9688C317.389 43.3094 321.214 44.7073 324.966 44.7073V46.3259C322.539 46.3994 320.111 47.0616 318.786 48.6801C317.389 50.5194 317.389 52.2851 317.389 54.4922Z" fill="#508559"/>
<path d="M84.7062 137.742V145.982C84.7062 150.102 87.8697 152.236 92.8726 152.236L92.799 159.814C86.5454 159.814 77.0548 155.399 77.0548 150.176C77.0548 145.467 78.3055 133.034 74.2591 133.034H70.0656V124.573H74.2591C78.3055 124.573 77.0548 112.507 77.0548 107.799C77.0548 102.207 86.5454 98.1611 92.799 98.1611L92.8726 105.812C87.8697 105.812 84.7062 107.946 84.7062 111.992V122.219C84.7062 126.559 80.8805 127.957 77.1284 127.957V129.576C79.5562 129.649 81.984 130.312 83.3083 131.93C84.7062 133.769 84.7062 135.535 84.7062 137.742Z" fill="#508559"/>
<path d="M51.3571 137.742V145.982C51.3571 150.102 54.5206 152.236 59.5234 152.236L59.4499 159.814C53.1963 159.814 43.7057 155.399 43.7057 150.176C43.7057 145.467 44.9564 133.034 40.91 133.034H36.7164V124.573H40.91C44.9564 124.573 43.7057 112.507 43.7057 107.799C43.7057 102.207 53.1963 98.1611 59.4499 98.1611L59.5234 105.812C54.5206 105.812 51.3571 107.946 51.3571 111.992V122.219C51.3571 126.559 47.5314 127.957 43.7792 127.957V129.576C46.2071 129.649 48.6349 130.312 49.9592 131.93C51.3571 133.769 51.3571 135.535 51.3571 137.742Z" fill="#508559"/>
<path d="M18.0079 137.742V145.982C18.0079 150.102 21.1715 152.236 26.1743 152.236L26.1007 159.814C19.8472 159.814 10.3566 155.399 10.3566 150.176C10.3566 145.467 11.6073 133.034 7.56086 133.034H3.36731V124.573H7.56086C11.6073 124.573 10.3566 112.507 10.3566 107.799C10.3566 102.207 19.8472 98.1611 26.1007 98.1611L26.1743 105.812C21.1715 105.812 18.0079 107.946 18.0079 111.992V122.219C18.0079 126.559 14.1822 127.957 10.4301 127.957V129.576C12.858 129.649 15.2858 130.312 16.6101 131.93C18.0079 133.769 18.0079 135.535 18.0079 137.742Z" fill="#508559"/>
<path d="M11.9921 210.742V218.982C11.9921 223.102 8.82852 225.236 3.82569 225.236L3.89926 232.814C10.1528 232.814 19.6434 228.399 19.6434 223.176C19.6434 218.467 18.3927 206.034 22.4391 206.034H26.6327V197.573H22.4391C18.3927 197.573 19.6434 185.507 19.6434 180.799C19.6434 175.207 10.1528 171.161 3.89926 171.161L3.82569 178.812C8.82852 178.812 11.9921 180.946 11.9921 184.992V195.219C11.9921 199.559 15.8178 200.957 19.5699 200.957V202.576C17.142 202.649 14.7142 203.312 13.3899 204.93C11.9921 206.769 11.9921 208.535 11.9921 210.742Z" fill="#508559"/>
<path d="M45.3412 210.742V218.982C45.3412 223.102 42.1776 225.236 37.1748 225.236L37.2484 232.814C43.5019 232.814 52.9926 228.399 52.9926 223.176C52.9926 218.467 51.7419 206.034 55.7883 206.034H59.9818V197.573H55.7883C51.7419 197.573 52.9926 185.507 52.9926 180.799C52.9926 175.207 43.5019 171.161 37.2484 171.161L37.1748 178.812C42.1776 178.812 45.3412 180.946 45.3412 184.992V195.219C45.3412 199.559 49.1669 200.957 52.919 200.957V202.576C50.4912 202.649 48.0633 203.312 46.739 204.93C45.3412 206.769 45.3412 208.535 45.3412 210.742Z" fill="#508559"/>
<path d="M78.6903 210.742V218.982C78.6903 223.102 75.5268 225.236 70.5239 225.236L70.5975 232.814C76.851 232.814 86.3417 228.399 86.3417 223.176C86.3417 218.467 85.091 206.034 89.1374 206.034H93.3309V197.573H89.1374C85.091 197.573 86.3417 185.507 86.3417 180.799C86.3417 175.207 76.851 171.161 70.5975 171.161L70.5239 178.812C75.5268 178.812 78.6903 180.946 78.6903 184.992V195.219C78.6903 199.559 82.516 200.957 86.2681 200.957V202.576C83.8403 202.649 81.4124 203.312 80.0882 204.93C78.6903 206.769 78.6903 208.535 78.6903 210.742Z" fill="#508559"/>
<path d="M323.404 137.742V145.982C323.404 150.102 326.568 152.236 331.571 152.236L331.497 159.814C325.244 159.814 315.753 155.399 315.753 150.176C315.753 145.467 317.004 133.034 312.957 133.034H308.764V124.573H312.957C317.004 124.573 315.753 112.507 315.753 107.799C315.753 102.207 325.244 98.1611 331.497 98.1611L331.571 105.812C326.568 105.812 323.404 107.946 323.404 111.992V122.219C323.404 126.559 319.579 127.957 315.827 127.957V129.576C318.254 129.649 320.682 130.312 322.007 131.93C323.404 133.769 323.404 135.535 323.404 137.742Z" fill="#508559"/>
<path d="M290.055 137.742V145.982C290.055 150.102 293.219 152.236 298.222 152.236L298.148 159.814C291.895 159.814 282.404 155.399 282.404 150.176C282.404 145.467 283.655 133.034 279.608 133.034H275.415V124.573H279.608C283.655 124.573 282.404 112.507 282.404 107.799C282.404 102.207 291.895 98.1611 298.148 98.1611L298.222 105.812C293.219 105.812 290.055 107.946 290.055 111.992V122.219C290.055 126.559 286.23 127.957 282.477 127.957V129.576C284.905 129.649 287.333 130.312 288.657 131.93C290.055 133.769 290.055 135.535 290.055 137.742Z" fill="#508559"/>
<path d="M256.706 137.742V145.982C256.706 150.102 259.87 152.236 264.873 152.236L264.799 159.814C258.545 159.814 249.055 155.399 249.055 150.176C249.055 145.467 250.306 133.034 246.259 133.034H242.066V124.573H246.259C250.306 124.573 249.055 112.507 249.055 107.799C249.055 102.207 258.545 98.1611 264.799 98.1611L264.873 105.812C259.87 105.812 256.706 107.946 256.706 111.992V122.219C256.706 126.559 252.88 127.957 249.128 127.957V129.576C251.556 129.649 253.984 130.312 255.308 131.93C256.706 133.769 256.706 135.535 256.706 137.742Z" fill="#508559"/>
<path d="M250.69 210.742V218.982C250.69 223.102 247.527 225.236 242.524 225.236L242.598 232.814C248.851 232.814 258.342 228.399 258.342 223.176C258.342 218.467 257.091 206.034 261.137 206.034H265.331V197.573H261.137C257.091 197.573 258.342 185.507 258.342 180.799C258.342 175.207 248.851 171.161 242.598 171.161L242.524 178.812C247.527 178.812 250.69 180.946 250.69 184.992V195.219C250.69 199.559 254.516 200.957 258.268 200.957V202.576C255.84 202.649 253.412 203.312 252.088 204.93C250.69 206.769 250.69 208.535 250.69 210.742Z" fill="#508559"/>
<path d="M284.039 210.742V218.982C284.039 223.102 280.876 225.236 275.873 225.236L275.947 232.814C282.2 232.814 291.691 228.399 291.691 223.176C291.691 218.467 290.44 206.034 294.487 206.034H298.68V197.573H294.487C290.44 197.573 291.691 185.507 291.691 180.799C291.691 175.207 282.2 171.161 275.947 171.161L275.873 178.812C280.876 178.812 284.039 180.946 284.039 184.992V195.219C284.039 199.559 287.865 200.957 291.617 200.957V202.576C289.189 202.649 286.762 203.312 285.437 204.93C284.039 206.769 284.039 208.535 284.039 210.742Z" fill="#508559"/>
<path d="M317.389 210.742V218.982C317.389 223.102 314.225 225.236 309.222 225.236L309.296 232.814C315.549 232.814 325.04 228.399 325.04 223.176C325.04 218.467 323.789 206.034 327.836 206.034H332.029V197.573H327.836C323.789 197.573 325.04 185.507 325.04 180.799C325.04 175.207 315.549 171.161 309.296 171.161L309.222 178.812C314.225 178.812 317.389 180.946 317.389 184.992V195.219C317.389 199.559 321.214 200.957 324.966 200.957V202.576C322.539 202.649 320.111 203.312 318.786 204.93C317.389 206.769 317.389 208.535 317.389 210.742Z" fill="#508559"/>
<path d="M323.404 293.992V302.232C323.404 306.352 326.568 308.486 331.571 308.486L331.497 316.064C325.244 316.064 315.753 311.649 315.753 306.426C315.753 301.717 317.004 289.284 312.957 289.284H308.764V280.823H312.957C317.004 280.823 315.753 268.757 315.753 264.049C315.753 258.457 325.244 254.411 331.497 254.411L331.571 262.062C326.568 262.062 323.404 264.196 323.404 268.242V278.469C323.404 282.809 319.579 284.207 315.827 284.207V285.826C318.254 285.899 320.682 286.562 322.007 288.18C323.404 290.019 323.404 291.785 323.404 293.992Z" fill="#508559"/>
<path d="M285.23 293.992V302.232C285.23 306.352 288.393 308.486 293.396 308.486L293.323 316.064C287.069 316.064 277.578 311.649 277.578 306.426C277.578 301.717 278.829 289.284 274.783 289.284H270.589V280.823H274.783C278.829 280.823 277.578 268.757 277.578 264.049C277.578 258.457 287.069 254.411 293.323 254.411L293.396 262.062C288.393 262.062 285.23 264.196 285.23 268.242V278.469C285.23 282.809 281.404 284.207 277.652 284.207V285.826C280.08 285.899 282.508 286.562 283.832 288.18C285.23 290.019 285.23 291.785 285.23 293.992Z" fill="#508559"/>
<path d="M247.055 293.992V302.232C247.055 306.352 250.219 308.486 255.222 308.486L255.148 316.064C248.895 316.064 239.404 311.649 239.404 306.426C239.404 301.717 240.655 289.284 236.608 289.284H232.415V280.823H236.608C240.655 280.823 239.404 268.757 239.404 264.049C239.404 258.457 248.895 254.411 255.148 254.411L255.222 262.062C250.219 262.062 247.055 264.196 247.055 268.242V278.469C247.055 282.809 243.23 284.207 239.477 284.207V285.826C241.905 285.899 244.333 286.562 245.657 288.18C247.055 290.019 247.055 291.785 247.055 293.992Z" fill="#508559"/>
<path d="M208.881 293.992V302.232C208.881 306.352 212.044 308.486 217.047 308.486L216.974 316.064C210.72 316.064 201.229 311.649 201.229 306.426C201.229 301.717 202.48 289.284 198.434 289.284H194.24V280.823H198.434C202.48 280.823 201.229 268.757 201.229 264.049C201.229 258.457 210.72 254.411 216.974 254.411L217.047 262.062C212.044 262.062 208.881 264.196 208.881 268.242V278.469C208.881 282.809 205.055 284.207 201.303 284.207V285.826C203.731 285.899 206.159 286.562 207.483 288.18C208.881 290.019 208.881 291.785 208.881 293.992Z" fill="#508559"/>
<path d="M170.706 293.992V302.232C170.706 306.352 173.87 308.486 178.873 308.486L178.799 316.064C172.545 316.064 163.055 311.649 163.055 306.426C163.055 301.717 164.306 289.284 160.259 289.284H156.066V280.823H160.259C164.306 280.823 163.055 268.757 163.055 264.049C163.055 258.457 172.545 254.411 178.799 254.411L178.873 262.062C173.87 262.062 170.706 264.196 170.706 268.242V278.469C170.706 282.809 166.88 284.207 163.128 284.207V285.826C165.556 285.899 167.984 286.562 169.308 288.18C170.706 290.019 170.706 291.785 170.706 293.992Z" fill="#508559"/>
<path d="M132.532 293.992V302.232C132.532 306.352 135.695 308.486 140.698 308.486L140.624 316.064C134.371 316.064 124.88 311.649 124.88 306.426C124.88 301.717 126.131 289.284 122.085 289.284H117.891V280.823H122.085C126.131 280.823 124.88 268.757 124.88 264.049C124.88 258.457 134.371 254.411 140.624 254.411L140.698 262.062C135.695 262.062 132.532 264.196 132.532 268.242V278.469C132.532 282.809 128.706 284.207 124.954 284.207V285.826C127.382 285.899 129.809 286.562 131.134 288.18C132.532 290.019 132.532 291.785 132.532 293.992Z" fill="#508559"/>
<path d="M94.3571 293.992V302.232C94.3571 306.352 97.5206 308.486 102.523 308.486L102.45 316.064C96.1963 316.064 86.7057 311.649 86.7057 306.426C86.7057 301.717 87.9564 289.284 83.91 289.284H79.7164V280.823H83.91C87.9564 280.823 86.7057 268.757 86.7057 264.049C86.7057 258.457 96.1963 254.411 102.45 254.411L102.523 262.062C97.5206 262.062 94.3571 264.196 94.3571 268.242V278.469C94.3571 282.809 90.5314 284.207 86.7792 284.207V285.826C89.2071 285.899 91.6349 286.562 92.9592 288.18C94.3571 290.019 94.3571 291.785 94.3571 293.992Z" fill="#508559"/>
<path d="M56.1825 293.992V302.232C56.1825 306.352 59.346 308.486 64.3489 308.486L64.2753 316.064C58.0218 316.064 48.5311 311.649 48.5311 306.426C48.5311 301.717 49.7818 289.284 45.7354 289.284H41.5419V280.823H45.7354C49.7818 280.823 48.5311 268.757 48.5311 264.049C48.5311 258.457 58.0218 254.411 64.2753 254.411L64.3489 262.062C59.346 262.062 56.1825 264.196 56.1825 268.242V278.469C56.1825 282.809 52.3568 284.207 48.6047 284.207V285.826C51.0325 285.899 53.4604 286.562 54.7846 288.18C56.1825 290.019 56.1825 291.785 56.1825 293.992Z" fill="#508559"/>
<path d="M18.0079 293.992V302.232C18.0079 306.352 21.1715 308.486 26.1743 308.486L26.1007 316.064C19.8472 316.064 10.3566 311.649 10.3566 306.426C10.3566 301.717 11.6073 289.284 7.56086 289.284H3.36731V280.823H7.56086C11.6073 280.823 10.3566 268.757 10.3566 264.049C10.3566 258.457 19.8472 254.411 26.1007 254.411L26.1743 262.062C21.1715 262.062 18.0079 264.196 18.0079 268.242V278.469C18.0079 282.809 14.1822 284.207 10.4301 284.207V285.826C12.858 285.899 15.2858 286.562 16.6101 288.18C18.0079 290.019 18.0079 291.785 18.0079 293.992Z" fill="#508559"/>
</svg>
