<svg width="2106" height="39" viewBox="0 0 2106 39" fill="none" xmlns="http://www.w3.org/2000/svg">
<path d="M33.0113 0.799949H26.025C26.025 0.799949 26.025 15.5724 26.025 23.1986C26.0784 28.0516 22.0253 32.3713 16.5323 32.3713C11.0926 32.3713 7.09289 28.0516 7.03956 23.1986V0.799949H0.0533301C0.0533301 0.799949 0 14.0791 0 25.1718C0.0533301 34.0779 7.19955 38.9309 16.5323 38.9309C25.8117 38.9309 33.0646 34.0779 33.0113 25.1718V0.799949Z" fill="#CAC6A2"/>
<path d="M40.0558 38.131H47.0421V0.799949H40.0558V38.131Z" fill="#CAC6A2"/>
<path d="M51.8218 38.131H58.0614L69.2607 0H62.9677L51.8218 38.131Z" fill="#CAC6A2"/>
<path d="M107.277 0.799949H100.291C100.291 0.799949 100.291 15.5724 100.291 23.1986C100.345 28.0516 96.2915 32.3713 90.7985 32.3713C85.3588 32.3713 81.3591 28.0516 81.3058 23.1986V0.799949H74.3195C74.3195 0.799949 74.2662 14.0791 74.2662 25.1718C74.3195 34.0779 81.4657 38.9309 90.7985 38.9309C100.078 38.9309 107.331 34.0779 107.277 25.1718V0.799949Z" fill="#CAC6A2"/>
<path d="M127.655 25.8117C128.454 24.4785 128.401 22.6119 128.401 21.0654H129.628C129.628 22.6119 129.574 24.4785 130.428 25.7584L138.481 38.131H146.48L133.201 19.3055L145.68 0.799949H137.734L130.428 11.9993C129.574 13.2792 129.628 15.1991 129.574 16.7456L128.401 16.6923C128.401 15.1457 128.508 13.2792 127.708 11.9459L120.775 0.799949H112.722L124.988 18.6122L111.922 38.131H119.762L127.655 25.8117Z" fill="#CAC6A2"/>
<path d="M192.64 10.431H186.04V18.831H177.64V25.431H186.04V33.831H192.64V25.431H201.04V18.831H192.64V10.431Z" fill="#CAC6A2"/>
<path d="M236.653 11.7326C236.653 9.81272 235.8 7.30621 235.48 5.333L236.653 5.17301C237.026 7.09289 237.079 9.70606 237.719 11.5726L247.425 38.131H255.692L265.344 11.5726C265.984 9.70606 266.038 7.09289 266.411 5.11968L267.584 5.333C267.264 7.30621 266.411 9.75939 266.411 11.7326V38.131H273.397V0.799949H262.784L252.705 26.4517C252.012 28.3182 252.172 30.8247 252.172 32.798H250.999C250.999 30.8247 251.105 28.3182 250.412 26.4517L240.333 0.799949H229.667V38.131H236.653V11.7326Z" fill="#D0B895"/>
<path d="M278.006 19.4655C278.006 30.5048 286.113 38.9842 296.405 38.9842C306.698 38.9842 314.804 29.9715 314.804 19.4655C314.804 8.95944 306.698 0 296.405 0C286.113 0 278.006 8.42614 278.006 19.4655ZM285.046 19.4655C285.046 13.2792 288.779 6.77291 296.405 6.77291C304.031 6.77291 307.818 13.2792 307.818 19.4655C307.818 25.6517 304.031 32.2113 296.405 32.2113C288.779 32.2113 285.046 25.6517 285.046 19.4655Z" fill="#D0B895"/>
<path d="M334.136 38.131V7.30621H344.109V0.799949H317.177V7.30621H327.15V38.131H334.136Z" fill="#D0B895"/>
<path d="M349.815 38.131H356.802V0.799949H349.815V38.131Z" fill="#D0B895"/>
<path d="M361.335 19.4655C361.335 30.5048 369.441 38.9842 379.733 38.9842C390.026 38.9842 398.132 29.9715 398.132 19.4655C398.132 8.95944 390.026 0 379.733 0C369.441 0 361.335 8.42614 361.335 19.4655ZM368.374 19.4655C368.374 13.2792 372.107 6.77291 379.733 6.77291C387.36 6.77291 391.146 13.2792 391.146 19.4655C391.146 25.6517 387.36 32.2113 379.733 32.2113C372.107 32.2113 368.374 25.6517 368.374 19.4655Z" fill="#D0B895"/>
<path d="M410.548 16.4256C410.548 14.0791 409.482 11.2526 408.735 9.0661L409.855 8.63946C410.602 10.8793 411.455 13.7591 412.895 15.6257L429.907 38.131H436.893V0.799949H429.907V22.5586C429.907 24.9051 430.974 27.7316 431.72 29.9181L430.547 30.2914C429.8 28.1049 428.947 25.1718 427.56 23.3585L410.548 0.799949H403.562V38.131H410.548V16.4256Z" fill="#D0B895"/>
<path d="M487.04 10.431H480.44V18.831H472.04V25.431H480.44V33.831H487.04V25.431H495.44V18.831H487.04V10.431Z" fill="#CAC6A2"/>
<path d="M537.026 22.5586C545.612 22.5586 552.118 20.4254 552.118 11.466C552.118 2.50651 545.558 0.799949 537.612 0.799949H523.64V38.131H530.626V22.5053C533.346 22.5586 535.639 22.5586 537.026 22.5586ZM530.626 16.6923V6.71958H536.492C541.399 6.71958 545.292 6.77291 545.292 11.466C545.292 16.319 541.079 16.6923 536.492 16.6923H530.626Z" fill="#CAC6A2"/>
<path d="M579.024 21.8653C577.424 20.7987 574.704 21.332 572.784 21.332V20.1054C574.704 20.1054 577.264 20.4254 579.024 19.6254C582.384 18.1855 584.89 16.0523 584.89 11.2526C584.89 2.50651 577.957 0.799949 569.584 0.799949H556.252V38.131H563.025V23.7319C563.665 23.7319 566.385 23.7319 567.665 23.7319C568.145 23.7319 568.571 23.7319 568.944 23.7319C570.918 23.8385 574.651 23.1986 576.357 29.2248C576.517 29.9715 577.424 33.4379 578.597 38.131H585.797C585.797 38.131 583.45 30.9314 582.97 28.7982C582.117 25.4384 581.157 23.1452 579.024 21.8653ZM563.025 5.43966H569.051C574.011 5.43966 577.904 6.66625 577.904 11.3593C577.904 16.1057 573.691 17.9722 569.051 17.9722H563.025V5.43966Z" fill="#CAC6A2"/>
<path d="M589.02 19.4655C589.02 30.5048 597.126 38.9842 607.419 38.9842C617.711 38.9842 625.818 29.9715 625.818 19.4655C625.818 8.95944 617.711 0 607.419 0C597.126 0 589.02 8.42614 589.02 19.4655ZM596.059 19.4655C596.059 13.2792 599.793 6.77291 607.419 6.77291C615.045 6.77291 618.831 13.2792 618.831 19.4655C618.831 25.6517 615.045 32.2113 607.419 32.2113C599.793 32.2113 596.059 25.6517 596.059 19.4655Z" fill="#CAC6A2"/>
<path d="M646.606 38.1843C657.166 38.2376 665.432 29.7581 665.432 18.6655C665.432 7.57286 657.432 0 646.873 0H631.247V38.131H637.38L646.606 38.1843ZM638.233 31.5714V6.61292H645.86C653.326 6.61292 658.659 11.9993 658.659 18.7722C658.659 25.4917 653.059 31.5714 645.593 31.5714H638.233Z" fill="#CAC6A2"/>
<path d="M703.781 0.799949H696.795C696.795 0.799949 696.795 15.5724 696.795 23.1986C696.848 28.0516 692.795 32.3713 687.302 32.3713C681.862 32.3713 677.863 28.0516 677.809 23.1986V0.799949H670.823C670.823 0.799949 670.77 14.0791 670.77 25.1718C670.823 34.0779 677.969 38.9309 687.302 38.9309C696.581 38.9309 703.834 34.0779 703.781 25.1718V0.799949Z" fill="#CAC6A2"/>
<path d="M728.424 38.9309C739.464 38.9309 745.117 33.9179 746.13 25.5984H739.091C738.184 28.7449 736.104 32.2113 728.265 32.2113C721.332 32.2113 715.999 27.465 715.999 19.4655C715.999 11.4126 721.385 6.71958 728.265 6.71958C735.731 6.71958 737.757 10.186 738.611 13.3325H745.65C744.904 6.18628 739.57 0 728.211 0C717.172 0 709.012 8.31948 709.012 19.4121C709.012 30.5581 717.279 38.9309 728.424 38.9309Z" fill="#CAC6A2"/>
<path d="M765.715 38.131V7.30621H775.687V0.799949H748.756V7.30621H758.728V38.131H765.715Z" fill="#CAC6A2"/>
<path d="M825.44 10.431H818.84V18.831H810.44V25.431H818.84V33.831H825.44V25.431H833.84V18.831H825.44V10.431Z" fill="#CAC6A2"/>
<path d="M884.652 18.9322C883.266 18.4522 881.292 18.7722 879.852 18.7722V17.5989C881.292 17.5989 883.266 17.9722 884.652 17.4389C888.812 15.9457 890.785 13.8658 890.785 9.97271C890.785 2.02654 884.812 0.799949 877.079 0.799949H862.467V38.131H869.24V38.1843C872.493 38.1843 876.279 38.2376 877.719 38.2376C887.159 38.2376 892.705 36.691 892.705 27.7316C892.705 22.3453 888.652 20.2654 884.652 18.9322ZM869.24 14.8257V6.23961H875.319C880.439 6.23961 883.746 6.29294 883.746 10.2927C883.746 14.3991 880.119 14.8257 875.319 14.8257H869.24ZM869.24 32.8513V21.7586H869.773C871.586 21.812 873.186 21.812 873.986 21.812C880.759 21.812 885.719 21.812 885.719 27.5183C885.719 33.0646 881.826 32.8513 875.479 32.8513H869.24Z" fill="#D0B895"/>
<path d="M919.768 21.8653C918.168 20.7987 915.448 21.332 913.528 21.332V20.1054C915.448 20.1054 918.008 20.4254 919.768 19.6254C923.128 18.1855 925.634 16.0523 925.634 11.2526C925.634 2.50651 918.701 0.799949 910.328 0.799949H896.996V38.131H903.769V23.7319C904.409 23.7319 907.129 23.7319 908.409 23.7319C908.889 23.7319 909.315 23.7319 909.688 23.7319C911.662 23.8385 915.395 23.1986 917.101 29.2248C917.261 29.9715 918.168 33.4379 919.341 38.131H926.541C926.541 38.131 924.194 30.9314 923.714 28.7982C922.861 25.4384 921.901 23.1452 919.768 21.8653ZM903.769 5.43966H909.795C914.755 5.43966 918.648 6.66625 918.648 11.3593C918.648 16.1057 914.435 17.9722 909.795 17.9722H903.769V5.43966Z" fill="#D0B895"/>
<path d="M927.41 38.0776H934.769L939.356 25.0651H951.248L956.261 38.0776H963.568L949.169 0.693291H941.169L927.41 38.0776ZM950.395 19.8388H939.996L944.369 9.91938C944.849 8.79945 944.582 7.25288 944.582 6.07962H945.809C945.809 7.25288 945.542 8.79945 946.022 9.91938L950.395 19.8388Z" fill="#D0B895"/>
<path d="M973.509 16.4256C973.509 14.0791 972.442 11.2526 971.696 9.0661L972.816 8.63946C973.562 10.8793 974.416 13.7591 975.856 15.6257L992.868 38.131H999.854V0.799949H992.868V22.5586C992.868 24.9051 993.934 27.7316 994.681 29.9181L993.508 30.2914C992.761 28.1049 991.908 25.1718 990.521 23.3585L973.509 0.799949H966.523V38.131H973.509V16.4256Z" fill="#D0B895"/>
<path d="M1022.45 38.1843C1033.01 38.2376 1041.28 29.7581 1041.28 18.6655C1041.28 7.57286 1033.28 0 1022.72 0H1007.09V38.131H1013.23L1022.45 38.1843ZM1014.08 31.5714V6.61292H1021.71C1029.17 6.61292 1034.5 11.9993 1034.5 18.7722C1034.5 25.4917 1028.91 31.5714 1021.44 31.5714H1014.08Z" fill="#D0B895"/>
<path d="M1047.87 38.131H1054.86V0.799949H1047.87V38.131Z" fill="#D0B895"/>
<path d="M1069.02 16.4256C1069.02 14.0791 1067.96 11.2526 1067.21 9.0661L1068.33 8.63946C1069.08 10.8793 1069.93 13.7591 1071.37 15.6257L1088.38 38.131H1095.37V0.799949H1088.38V22.5586C1088.38 24.9051 1089.45 27.7316 1090.2 29.9181L1089.02 30.2914C1088.28 28.1049 1087.42 25.1718 1086.04 23.3585L1069.02 0.799949H1062.04V38.131H1069.02V16.4256Z" fill="#D0B895"/>
<path d="M1132.8 38.131H1139.52V17.9189H1121.97V23.9452H1132C1132 26.8783 1129.49 32.3713 1121.01 32.3713C1113.12 32.3713 1107.68 26.985 1107.68 19.4655C1107.68 11.9459 1112.74 6.61292 1120.1 6.61292C1125.33 6.61292 1129.38 8.69279 1131.04 12.1059C1130.98 12.1592 1137.97 10.5593 1137.97 10.5593C1135.46 3.83976 1128.8 0 1120.53 0C1109.06 0 1100.69 8.37281 1100.69 19.4655C1100.69 30.5581 1109.22 38.9842 1120.21 38.9842C1125.7 38.9842 1129.17 36.691 1131.04 34.6645C1132.48 33.0646 1132.58 30.0248 1133.17 27.9983L1134.29 28.2649C1133.76 30.3448 1132.8 33.0113 1132.8 35.1445V38.131Z" fill="#D0B895"/>
<path d="M1189.84 10.431H1183.24V18.831H1174.84V25.431H1183.24V33.831H1189.84V25.431H1198.24V18.831H1189.84V10.431Z" fill="#CAC6A2"/>
<path d="M1257.16 38.131H1263.88V17.9189H1246.33V23.9452H1256.36C1256.36 26.8783 1253.85 32.3713 1245.37 32.3713C1237.48 32.3713 1232.04 26.985 1232.04 19.4655C1232.04 11.9459 1237.11 6.61292 1244.47 6.61292C1249.69 6.61292 1253.75 8.69279 1255.4 12.1059C1255.34 12.1592 1262.33 10.5593 1262.33 10.5593C1259.82 3.83976 1253.16 0 1244.89 0C1233.43 0 1225.05 8.37281 1225.05 19.4655C1225.05 30.5581 1233.59 38.9842 1244.57 38.9842C1250.07 38.9842 1253.53 36.691 1255.4 34.6645C1256.84 33.0646 1256.94 30.0248 1257.53 27.9983L1258.65 28.2649C1258.12 30.3448 1257.16 33.0113 1257.16 35.1445V38.131Z" fill="#D0B895"/>
<path d="M1292.55 21.8653C1290.95 20.7987 1288.23 21.332 1286.31 21.332V20.1054C1288.23 20.1054 1290.79 20.4254 1292.55 19.6254C1295.91 18.1855 1298.42 16.0523 1298.42 11.2526C1298.42 2.50651 1291.49 0.799949 1283.11 0.799949H1269.78V38.131H1276.55V23.7319C1277.19 23.7319 1279.91 23.7319 1281.19 23.7319C1281.67 23.7319 1282.1 23.7319 1282.47 23.7319C1284.45 23.8385 1288.18 23.1986 1289.89 29.2248C1290.05 29.9715 1290.95 33.4379 1292.13 38.131H1299.33C1299.33 38.131 1296.98 30.9314 1296.5 28.7982C1295.65 25.4384 1294.69 23.1452 1292.55 21.8653ZM1276.55 5.43966H1282.58C1287.54 5.43966 1291.43 6.66625 1291.43 11.3593C1291.43 16.1057 1287.22 17.9722 1282.58 17.9722H1276.55V5.43966Z" fill="#D0B895"/>
<path d="M1300.19 38.0776H1307.55L1312.14 25.0651H1324.03L1329.05 38.0776H1336.35L1321.95 0.693291H1313.95L1300.19 38.0776ZM1323.18 19.8388H1312.78L1317.15 9.91938C1317.63 8.79945 1317.37 7.25288 1317.37 6.07962H1318.59C1318.59 7.25288 1318.33 8.79945 1318.81 9.91938L1323.18 19.8388Z" fill="#D0B895"/>
<path d="M1353.26 22.5586C1361.84 22.5586 1368.35 20.4254 1368.35 11.466C1368.35 2.50651 1361.79 0.799949 1353.84 0.799949H1339.87V38.131H1346.86V22.5053C1349.58 22.5586 1351.87 22.5586 1353.26 22.5586ZM1346.86 16.6923V6.71958H1352.72C1357.63 6.71958 1361.52 6.77291 1361.52 11.466C1361.52 16.319 1357.31 16.6923 1352.72 16.6923H1346.86Z" fill="#D0B895"/>
<path d="M1372.48 38.131H1379.47V22.3986H1399.15V38.131H1406.13V0.799949H1399.15V15.7857H1379.47V0.799949H1372.48V38.131Z" fill="#D0B895"/>
<path d="M1414.35 38.131H1421.34V0.799949H1414.35V38.131Z" fill="#D0B895"/>
<path d="M1445.29 38.9309C1456.33 38.9309 1461.98 33.9179 1462.99 25.5984H1455.95C1455.05 28.7449 1452.97 32.2113 1445.13 32.2113C1438.19 32.2113 1432.86 27.465 1432.86 19.4655C1432.86 11.4126 1438.25 6.71958 1445.13 6.71958C1452.59 6.71958 1454.62 10.186 1455.47 13.3325H1462.51C1461.77 6.18628 1456.43 0 1445.07 0C1434.03 0 1425.87 8.31948 1425.87 19.4121C1425.87 30.5581 1434.14 38.9309 1445.29 38.9309Z" fill="#D0B895"/>
<path d="M1498.81 6.66625C1495.02 2.61317 1490.06 0 1483.71 0C1474.91 0 1467.71 3.89309 1467.71 10.1327C1467.71 21.7053 1491.34 20.7987 1491.34 27.9449C1491.34 30.5581 1488.35 32.4246 1483.34 32.4246C1477.85 32.4246 1474.59 30.7714 1472.14 27.465L1466.86 30.8781C1470.81 36.2644 1475.34 38.9309 1482.43 38.9309C1492.51 38.9309 1499.87 34.7178 1499.87 27.6783C1499.87 14.4524 1475.29 15.1457 1475.29 9.75939C1475.29 7.25288 1478.59 5.81297 1482.17 5.81297C1487.34 5.81297 1491.07 7.4662 1493.53 10.186L1498.81 6.66625Z" fill="#D0B895"/>
<path d="M1551.24 10.431H1544.64V18.831H1536.24V25.431H1544.64V33.831H1551.24V25.431H1559.64V18.831H1551.24V10.431Z" fill="#CAC6A2"/>
<path d="M1609.49 10.8793C1609.97 8.85278 1609.71 6.13295 1609.71 4.05308H1610.93C1610.93 6.13295 1610.67 8.85278 1611.15 10.8793L1617.86 38.131H1625.97L1635.2 0.799949H1628.42L1622.77 24.8518C1622.34 26.7183 1622.66 29.3315 1622.72 31.2514L1621.49 31.3047C1621.44 29.3315 1621.65 26.7717 1621.17 24.8518L1614.29 0.799949H1606.29L1599.52 24.8518C1599.04 26.7717 1599.25 29.3315 1599.2 31.3047L1598.03 31.2514C1598.08 29.3315 1598.4 26.7183 1597.92 24.8518L1592.27 0.799949H1585.49L1594.77 38.131H1602.83L1609.49 10.8793Z" fill="#CAC6A2"/>
<path d="M1639.67 38.131H1665.96V31.6247H1646.44V22.3453H1664.36V15.839H1646.44V7.30621H1665.69V0.799949H1639.67V38.131Z" fill="#CAC6A2"/>
<path d="M1692.74 18.9322C1691.35 18.4522 1689.38 18.7722 1687.94 18.7722V17.5989C1689.38 17.5989 1691.35 17.9722 1692.74 17.4389C1696.9 15.9457 1698.87 13.8658 1698.87 9.97271C1698.87 2.02654 1692.9 0.799949 1685.17 0.799949H1670.55V38.131H1677.33V38.1843C1680.58 38.1843 1684.37 38.2376 1685.81 38.2376C1695.24 38.2376 1700.79 36.691 1700.79 27.7316C1700.79 22.3453 1696.74 20.2654 1692.74 18.9322ZM1677.33 14.8257V6.23961H1683.41C1688.53 6.23961 1691.83 6.29294 1691.83 10.2927C1691.83 14.3991 1688.21 14.8257 1683.41 14.8257H1677.33ZM1677.33 32.8513V21.7586H1677.86C1679.67 21.812 1681.27 21.812 1682.07 21.812C1688.85 21.812 1693.81 21.812 1693.81 27.5183C1693.81 33.0646 1689.91 32.8513 1683.57 32.8513H1677.33Z" fill="#CAC6A2"/>
<path d="M1733.77 38.1843C1744.33 38.2376 1752.6 29.7581 1752.6 18.6655C1752.6 7.57286 1744.6 0 1734.04 0H1718.41V38.131H1724.55L1733.77 38.1843ZM1725.4 31.5714V6.61292H1733.03C1740.49 6.61292 1745.83 11.9993 1745.83 18.7722C1745.83 25.4917 1740.23 31.5714 1732.76 31.5714H1725.4Z" fill="#CAC6A2"/>
<path d="M1758.2 38.131H1784.5V31.6247H1764.98V22.3453H1782.9V15.839H1764.98V7.30621H1784.23V0.799949H1758.2V38.131Z" fill="#CAC6A2"/>
<path d="M1793.16 0.799949H1785.69L1799.45 38.131H1807.77L1821.53 0.799949H1814.07L1804.73 26.345C1804.09 28.2116 1804.2 30.8247 1804.2 32.8513H1803.03C1803.03 30.8247 1803.19 28.2116 1802.49 26.345L1793.16 0.799949Z" fill="#CAC6A2"/>
<path d="M1826.27 38.131H1852.56V31.6247H1833.05V22.3453H1850.96V15.839H1833.05V7.30621H1852.3V0.799949H1826.27V38.131Z" fill="#CAC6A2"/>
<path d="M1863.93 31.6247V0.799949H1857.16V38.131H1882.01V31.6247H1863.93Z" fill="#CAC6A2"/>
<path d="M1884.4 19.4655C1884.4 30.5048 1892.51 38.9842 1902.8 38.9842C1913.1 38.9842 1921.2 29.9715 1921.2 19.4655C1921.2 8.95944 1913.1 0 1902.8 0C1892.51 0 1884.4 8.42614 1884.4 19.4655ZM1891.44 19.4655C1891.44 13.2792 1895.18 6.77291 1902.8 6.77291C1910.43 6.77291 1914.22 13.2792 1914.22 19.4655C1914.22 25.6517 1910.43 32.2113 1902.8 32.2113C1895.18 32.2113 1891.44 25.6517 1891.44 19.4655Z" fill="#CAC6A2"/>
<path d="M1939.59 22.5586C1948.18 22.5586 1954.68 20.4254 1954.68 11.466C1954.68 2.50651 1948.12 0.799949 1940.18 0.799949H1926.2V38.131H1933.19V22.5053C1935.91 22.5586 1938.2 22.5586 1939.59 22.5586ZM1933.19 16.6923V6.71958H1939.06C1943.96 6.71958 1947.86 6.77291 1947.86 11.466C1947.86 16.319 1943.64 16.6923 1939.06 16.6923H1933.19Z" fill="#CAC6A2"/>
<path d="M1965.8 11.7326C1965.8 9.81272 1964.95 7.30621 1964.63 5.333L1965.8 5.17301C1966.18 7.09289 1966.23 9.70606 1966.87 11.5726L1976.58 38.131H1984.84L1994.49 11.5726C1995.13 9.70606 1995.19 7.09289 1995.56 5.11968L1996.73 5.333C1996.41 7.30621 1995.56 9.75939 1995.56 11.7326V38.131H2002.55V0.799949H1991.93L1981.85 26.4517C1981.16 28.3182 1981.32 30.8247 1981.32 32.798H1980.15C1980.15 30.8247 1980.26 28.3182 1979.56 26.4517L1969.48 0.799949H1958.82V38.131H1965.8V11.7326Z" fill="#CAC6A2"/>
<path d="M2009.8 38.131H2036.09V31.6247H2016.58V22.3453H2034.49V15.839H2016.58V7.30621H2035.83V0.799949H2009.8V38.131Z" fill="#CAC6A2"/>
<path d="M2047.67 16.4256C2047.67 14.0791 2046.61 11.2526 2045.86 9.0661L2046.98 8.63946C2047.73 10.8793 2048.58 13.7591 2050.02 15.6257L2067.03 38.131H2074.02V0.799949H2067.03V22.5586C2067.03 24.9051 2068.1 27.7316 2068.84 29.9181L2067.67 30.2914C2066.92 28.1049 2066.07 25.1718 2064.68 23.3585L2047.67 0.799949H2040.69V38.131H2047.67V16.4256Z" fill="#CAC6A2"/>
<path d="M2095.84 38.131V7.30621H2105.81V0.799949H2078.88V7.30621H2088.85V38.131H2095.84Z" fill="#CAC6A2"/>
</svg>
