<svg width="156" height="140" viewBox="0 0 156 140" fill="none" xmlns="http://www.w3.org/2000/svg">
<g clip-path="url(#clip0_549_3865)">
<path d="M145.28 80.6839C151.191 43.6135 125.931 8.76998 88.8608 2.85879C51.7904 -3.05239 16.9469 22.2072 11.0357 59.2777C5.12448 96.3481 30.3841 131.192 67.4545 137.103C104.525 143.014 139.368 117.754 145.28 80.6839Z" fill="white" stroke="#222221" stroke-width="3" stroke-linecap="round" stroke-linejoin="round"/>
<path d="M19.0198 72.85C18.8498 75.23 18.9198 77.91 20.5998 79.59C21.4492 80.3307 22.4992 80.803 23.617 80.9472C24.7348 81.0914 25.8702 80.901 26.8798 80.4C28.8835 79.3614 30.5256 77.7402 31.5898 75.75C32.5403 74.1637 33.2862 72.4635 33.8098 70.69C35.2298 65.91 36.9598 55.76 28.9798 57.12C21.6598 58.38 19.4598 66.56 19.0198 72.85Z" stroke="#222221" stroke-width="1.56" stroke-linecap="round" stroke-linejoin="round"/>
<path d="M43.54 69.64C43.2786 70.4395 43.1634 71.2796 43.2 72.12C43.2522 72.6598 43.4646 73.1717 43.81 73.59C44.0038 73.8128 44.2469 73.9875 44.52 74.1C45.67 74.55 46.91 73.69 47.7 72.74C51.2 68.45 45.44 62.43 43.54 69.64Z" stroke="#222221" stroke-width="1.56" stroke-linecap="round" stroke-linejoin="round"/>
<path d="M83.7799 19.14C86.3699 18.98 93.4699 16.28 87.6799 15.25C85.9099 14.93 80.4999 15.11 81.4299 18.12C81.7099 19 82.8599 19.19 83.7799 19.14Z" stroke="#222221" stroke-width="1.56" stroke-linecap="round" stroke-linejoin="round"/>
<path d="M63.8597 17.35C64.4397 18.82 61.1398 21.02 59.6898 19.93C57.0198 17.93 61.2797 15.56 63.1697 16.65C63.3115 16.7346 63.4453 16.8316 63.5697 16.94C63.6976 17.0517 63.797 17.1923 63.8597 17.35Z" stroke="#222221" stroke-width="1.56" stroke-linecap="round" stroke-linejoin="round"/>
<path d="M124.85 51.03C123.555 49.9599 121.929 49.3731 120.25 49.37C119.259 49.4993 118.315 49.8672 117.498 50.442C116.681 51.0168 116.016 51.7814 115.56 52.67C114.668 54.4572 114.129 56.3991 113.97 58.39C113.16 64.7012 113.214 71.0933 114.13 77.39C114.332 79.2985 114.849 81.1604 115.66 82.9C116.074 83.7683 116.663 84.5411 117.391 85.1695C118.12 85.7978 118.97 86.2679 119.89 86.55C127.67 88.55 130.28 77.73 131.09 72.33C132.26 64.49 131.78 56.13 124.85 51.03Z" stroke="#222221" stroke-width="1.56" stroke-linecap="round" stroke-linejoin="round"/>
<path d="M114.46 115.29C117.18 112.85 115.77 106.81 112.07 108.72C108.87 110.38 106.91 116.9 112.35 116.22C113.133 116.138 113.871 115.813 114.46 115.29Z" stroke="#222221" stroke-width="1.56" stroke-linecap="round" stroke-linejoin="round"/>
<path d="M100.23 44.87C99.1562 45.6508 98.372 46.7657 97.9998 48.04C97.2298 50.64 96.2998 55.85 99.4198 57.38C104.55 59.9 105.08 50.17 104.42 47.22C103.7 44.09 101.81 43.8 100.23 44.87Z" stroke="#222221" stroke-width="1.56" stroke-linecap="round" stroke-linejoin="round"/>
<path d="M41.9502 18.3799C40.721 19.0339 39.5954 19.8662 38.6102 20.8499C37.5402 21.7799 36.5102 22.7399 35.5202 23.7499C33.6588 25.6523 31.9345 27.684 30.3602 29.8299C27.0649 34.2549 24.5177 39.1904 22.8201 44.4399C22.7001 44.8199 23.5502 45.6799 23.7402 45.2099C25.6348 40.1696 28.1402 35.3806 31.2002 30.9499C32.7777 28.7257 34.5121 26.617 36.3902 24.6399C37.3235 23.6599 38.2835 22.7099 39.2702 21.7899C40.1902 20.9299 41.6102 20.1399 42.1602 19.0099C42.2402 18.8599 42.3302 18.2399 41.9502 18.3999V18.3799Z" fill="#222221"/>
<path d="M40.2599 23.6399H40.1399L39.6599 23.9299C39.3489 24.1275 39.0485 24.3411 38.7599 24.5699C38.1519 25.0396 37.5772 25.5508 37.0399 26.0999C36.0026 27.1553 35.056 28.296 34.2099 29.5099C32.477 32.0477 30.9553 34.7234 29.6599 37.5099C29.4299 37.9799 30.3399 39.0299 30.6599 38.5099C31.9821 35.9036 33.4373 33.3669 35.0199 30.9099C36.6546 28.4815 38.6824 26.3423 41.0199 24.5799C41.4199 24.2699 40.7199 23.3199 40.2999 23.5799L40.2599 23.6399Z" fill="#222221"/>
<path d="M38.0601 30.64C37.7301 30.72 37.6201 30.64 37.4401 30.93C37.3701 31.02 37.3101 31.12 37.2401 31.22L36.8501 31.79L36.0701 32.91C35.5401 33.68 35.0701 34.45 34.5801 35.26C34.3501 35.65 35.0801 36.54 35.4301 36.1C35.9901 35.37 36.5101 34.62 37.0101 33.84C37.2601 33.46 37.5101 33.08 37.7501 32.69L38.1401 32.1L38.3301 31.81C38.4359 31.533 38.467 31.2329 38.4201 30.94C38.4255 30.8938 38.4192 30.847 38.402 30.8039C38.3847 30.7607 38.3569 30.7225 38.3212 30.6927C38.2855 30.6629 38.2429 30.6425 38.1973 30.6333C38.1517 30.6241 38.1046 30.6264 38.0601 30.64Z" fill="#222221"/>
<path d="M25.1399 96.04C25.8799 96.5 26.3499 97.9 26.7799 98.65C27.2999 99.56 27.8299 100.46 28.3799 101.36C29.3799 102.96 30.3799 104.53 31.3799 106.06C33.6998 109.421 36.4123 112.492 39.4599 115.21C44.8099 119.96 51.4599 125.49 58.9299 125.76C59.7499 125.76 59.0799 124.43 58.5099 124.37C51.1099 123.68 44.9599 118.77 39.6199 113.98C36.8109 111.448 34.3012 108.603 32.1399 105.5C31.1399 104.03 30.1399 102.5 29.1899 101C28.0499 99.15 26.4699 97.12 25.8499 95C25.6499 94.35 24.4299 95.6 25.1099 96L25.1399 96.04Z" fill="#222221"/>
<path d="M38.31 107.49C38.4 107.3 39.05 108.49 39.11 108.49C39.35 108.9 39.62 109.3 39.89 109.68C40.445 110.462 41.0461 111.21 41.69 111.92C42.9716 113.317 44.3737 114.599 45.88 115.75C48.9787 118.135 52.3008 120.215 55.8 121.96C56.62 122.37 56.28 120.96 55.8 120.71C52.18 118.54 48.48 116.57 45.21 113.88C43.5968 112.57 42.1314 111.088 40.84 109.46C40.54 109.08 40.26 108.69 39.98 108.29C39.83 108.07 39.66 107.85 39.53 107.62C39.4 107.39 39.26 106.62 39.04 106.42C38.82 106.22 38.58 106.42 38.41 106.62C38.3237 106.732 38.2624 106.862 38.23 107C38.23 107.1 38.3 107.42 38.23 107.45L38.31 107.49Z" fill="#222221"/>
<path d="M46.2102 110.46H46.6602L46.2602 110.23C47.7379 111.854 49.4706 113.225 51.3902 114.29C51.4383 114.319 51.4934 114.335 51.5496 114.335C51.6057 114.335 51.6609 114.32 51.7092 114.291C51.7575 114.262 51.797 114.221 51.8236 114.171C51.8502 114.122 51.8629 114.066 51.8602 114.01C51.8529 113.852 51.8084 113.698 51.7302 113.561C51.6519 113.424 51.5423 113.307 51.4102 113.22C49.6796 112.178 48.0928 110.914 46.6902 109.46L47.0002 110.08L46.9002 109.48C46.8202 108.99 46.3802 109.12 46.1502 109.48C45.9202 109.84 45.7202 110.48 46.2102 110.48V110.46Z" fill="#222221"/>
<path d="M82.32 131.64C85.899 131.379 89.4588 130.902 92.98 130.21C96.5018 129.645 99.9802 128.837 103.39 127.79C104.01 127.58 103.28 126.43 102.76 126.54C99.24 127.21 95.76 128.08 92.23 128.72C88.7 129.36 85.23 129.8 81.67 130.35C81.02 130.45 81.79 131.67 82.32 131.64Z" fill="#222221"/>
<path d="M90.3998 126.45C92.2498 125.95 94.0898 125.45 95.9298 124.92C96.5598 124.74 95.8098 123.47 95.2698 123.63C93.4398 124.15 91.6298 124.72 89.8098 125.28C89.2398 125.46 89.9098 126.58 90.3998 126.45Z" fill="#222221"/>
<path d="M91.0799 122.32C91.9999 122.02 92.9099 121.73 93.8099 121.39C94.1199 121.27 94.0698 120.91 93.9398 120.66C93.8602 120.487 93.736 120.339 93.5799 120.23C93.4644 120.138 93.317 120.094 93.1699 120.11C92.2399 120.38 91.3299 120.7 90.4199 121.01C90.0999 121.12 90.1598 121.51 90.2898 121.75C90.3757 121.927 90.5025 122.082 90.6598 122.2C90.7789 122.293 90.9296 122.336 91.0799 122.32Z" fill="#222221"/>
<path d="M93.56 45.24C93.41 44.96 93.35 45.47 93.34 45.54C93.33 45.61 93.28 45.78 93.26 45.91C93.24 46.04 93.15 46.48 93.11 46.77C92.8643 48.4313 92.9048 50.1224 93.23 51.77C93.2525 51.932 93.3144 52.086 93.4103 52.2185C93.5062 52.351 93.6331 52.4579 93.78 52.53C94.03 52.63 94.28 52.53 94.23 52.21C94.0066 50.8891 93.9362 49.547 94.02 48.21C94.0621 47.5383 94.1489 46.8701 94.28 46.21C94.28 46.04 94.3599 45.88 94.3799 45.71C94.3999 45.54 94.5 44.99 94.31 44.78C94.2577 44.7293 94.1878 44.7009 94.115 44.7009C94.0422 44.7009 93.9722 44.7293 93.92 44.78C93.84 44.78 93.5 45.16 93.56 45.27V45.24Z" fill="#222221"/>
<path d="M109.84 74.06C109.84 73.95 109.84 73.69 109.76 73.91C109.75 74.0031 109.75 74.0969 109.76 74.19C109.76 74.36 109.76 74.54 109.76 74.71C109.76 74.88 109.76 75.34 109.76 75.65C109.823 76.3289 109.957 76.9992 110.16 77.65C110.573 78.9714 111.254 80.1935 112.16 81.24C112.3 81.4 112.62 81.57 112.79 81.38C112.96 81.19 112.79 80.81 112.68 80.65C111.355 79.0767 110.644 77.0767 110.68 75.02C110.68 74.86 110.68 74.69 110.68 74.53C110.68 74.37 110.68 74.33 110.68 74.24C110.714 73.9958 110.697 73.7472 110.63 73.51C110.4 72.99 109.72 73.7 109.78 74.06H109.84Z" fill="#222221"/>
<path d="M124.33 112.7C125.74 112.08 126.72 110.7 127.71 109.55C128.7 108.4 129.6 107.21 130.47 105.98C132.205 103.515 133.743 100.917 135.07 98.21C137.729 92.8789 139.519 87.1566 140.37 81.26C140.43 80.79 139.47 79.86 139.37 80.55C138.337 86.4318 136.461 92.1339 133.8 97.48C132.49 100.036 130.999 102.496 129.34 104.84C128.48 106.08 127.56 107.27 126.61 108.44C125.66 109.61 124.39 110.63 123.99 112.04C123.93 112.25 123.93 112.89 124.35 112.7H124.33Z" fill="#222221"/>
<path d="M126.66 103.64C127.083 103.516 127.459 103.269 127.74 102.93C127.97 102.69 128.19 102.44 128.41 102.19C128.87 101.65 129.32 101.1 129.74 100.52C130.636 99.2883 131.438 97.9913 132.14 96.64C133.531 94.02 134.506 91.1997 135.03 88.28C135.12 87.81 134.19 86.87 134.03 87.56C133.349 90.3675 132.342 93.0859 131.03 95.66C130.387 96.8927 129.669 98.0849 128.88 99.23C128.48 99.82 128.05 100.4 127.62 100.97C127.39 101.27 127.15 101.57 126.91 101.86C126.569 102.201 126.369 102.658 126.35 103.14C126.35 103.37 126.42 103.71 126.72 103.61L126.66 103.64Z" fill="#222221"/>
<path d="M102.14 14.38C111.693 17.3474 120.357 22.6468 127.35 29.8C128.07 30.56 128.35 29.51 127.82 28.94C120.832 21.3909 111.854 15.9694 101.92 13.3C101.33 13.15 101.77 14.3 102.14 14.38Z" fill="#222221"/>
<path d="M106.05 19.79C110.023 21.2341 113.64 23.5118 116.66 26.47C116.85 26.65 117.23 26.86 117.42 26.57C117.61 26.28 117.31 25.83 117.12 25.63C114.01 22.3923 110.123 20.0034 105.83 18.69C105.56 18.61 105.5 18.94 105.53 19.12C105.562 19.263 105.626 19.3971 105.715 19.5129C105.805 19.6287 105.919 19.7233 106.05 19.79Z" fill="#222221"/>
<path d="M108.2 24.49C108.621 24.5916 109.031 24.7392 109.42 24.93C109.809 25.1026 110.178 25.3172 110.52 25.57L110.78 25.77L110.92 25.88L111.42 26.35L111.67 26.61L111.79 26.74C111.94 26.92 112.08 27.12 112.22 27.31C112.36 27.5 112.74 27.84 113 27.65C113.26 27.46 113.05 27.01 112.92 26.8C111.737 24.9757 109.896 23.6788 107.78 23.18C107.44 23.1 107.39 23.52 107.46 23.75C107.51 23.9193 107.601 24.0736 107.725 24.1992C107.848 24.3248 108.001 24.4179 108.17 24.47L108.2 24.49Z" fill="#222221"/>
<path d="M74.94 32.47C74.5365 32.5363 74.1631 32.7248 73.87 33.01C73.6636 33.1897 73.4667 33.3799 73.28 33.58C72.879 33.9665 72.4985 34.3737 72.14 34.8C71.4159 35.6826 70.7796 36.6338 70.24 37.64C69.1498 39.6565 68.47 41.8691 68.24 44.15C68.236 44.3366 68.2788 44.5213 68.3643 44.6872C68.4499 44.8531 68.5756 44.995 68.73 45.1C68.94 45.24 69.36 45.32 69.39 44.95C69.6225 42.7396 70.2849 40.5961 71.34 38.64C71.8507 37.6772 72.4535 36.7663 73.14 35.92C73.4921 35.4722 73.8693 35.0448 74.27 34.64L74.86 34.08C75.29 33.69 75.25 33.65 75.34 32.97C75.34 32.7 75.27 32.38 74.94 32.47Z" fill="#222221"/>
<path d="M73.14 40.3C73.14 39.78 73.14 39.62 73.06 39.83V39.89V40.01L73 40.27L72.88 40.77C72.8 41.12 72.74 41.46 72.66 41.77C72.6461 41.947 72.6844 42.1243 72.77 42.28C72.8634 42.4667 73.0006 42.628 73.17 42.75C73.43 42.91 73.77 42.97 73.86 42.6C73.95 42.23 74.06 41.75 74.15 41.32C74.2 41.1 74.25 40.89 74.29 40.67C74.3003 40.5769 74.3003 40.483 74.29 40.39C74.3015 40.1181 74.278 39.8458 74.22 39.58C74.2087 39.536 74.1887 39.4949 74.1612 39.4588C74.1337 39.4227 74.0993 39.3925 74.06 39.37C73.9633 39.3418 73.8604 39.3429 73.7643 39.3731C73.6682 39.4034 73.5832 39.4614 73.52 39.54C73.4227 39.6386 73.3386 39.7495 73.27 39.87C73.212 39.9937 73.1716 40.125 73.15 40.26L73.14 40.3Z" fill="#222221"/>
<path d="M77.8698 43.4499C78.4898 43.4499 79.0498 41.9399 78.3598 41.9399C77.6698 41.9399 77.1698 43.4499 77.8698 43.4499Z" fill="#222221"/>
<path d="M79.7702 110.64C82.5797 110.327 85.2507 109.254 87.4956 107.536C89.7405 105.818 91.4742 103.52 92.5101 100.89C92.6901 100.41 91.7801 99.37 91.5101 99.89C90.4399 102.415 88.7414 104.625 86.5763 106.309C84.4112 107.993 81.8513 109.095 79.1402 109.51C78.5602 109.58 79.2202 110.74 79.7302 110.68L79.7702 110.64Z" fill="#222221"/>
<path d="M84.1402 105.64H84.1902L84.3002 105.55L84.5002 105.38L84.9202 105.02L85.7402 104.3C85.9602 104.1 85.8202 103.72 85.6602 103.52C85.5663 103.386 85.4386 103.279 85.2902 103.21C85.2385 103.18 85.1799 103.164 85.1202 103.164C85.0605 103.164 85.0018 103.18 84.9502 103.21L83.3402 104.58C83.1102 104.78 83.2602 105.17 83.4102 105.37C83.5079 105.507 83.6386 105.617 83.7902 105.69C83.843 105.722 83.9035 105.738 83.9652 105.738C84.0268 105.738 84.0873 105.722 84.1402 105.69V105.64Z" fill="#222221"/>
<path d="M82.4801 101.15C82.6301 101.47 82.6901 101.26 82.7601 101.15L82.8301 100.97C82.8901 100.85 82.9401 100.73 82.9901 100.6L83.3001 99.8799C83.3548 99.7384 83.3548 99.5815 83.3001 99.4399C83.242 99.2485 83.1391 99.0737 83.0001 98.9299C82.8816 98.8065 82.728 98.7227 82.5601 98.6899C82.4401 98.6899 82.2901 98.6899 82.2401 98.8299L81.8201 99.8299L81.6101 100.3C81.614 100.34 81.614 100.38 81.6101 100.42C81.5793 100.493 81.5624 100.571 81.5601 100.65C81.5499 100.776 81.5499 100.903 81.5601 101.03C81.5399 101.156 81.5399 101.284 81.5601 101.41C81.5609 101.453 81.571 101.496 81.5898 101.534C81.6085 101.573 81.6354 101.608 81.6686 101.635C81.7018 101.663 81.7406 101.683 81.7823 101.694C81.8239 101.705 81.8675 101.707 81.9101 101.7C82.0099 101.687 82.1039 101.646 82.1801 101.58C82.2401 101.58 82.5101 101.28 82.4801 101.21V101.15Z" fill="#222221"/>
<path d="M26.6502 60.29C26.3178 60.3654 26.0213 60.5525 25.8102 60.82C25.6402 61 25.4902 61.18 25.3302 61.37C25.0102 61.77 24.7102 62.18 24.4202 62.61C23.8237 63.5164 23.3147 64.4774 22.9002 65.48C22.0788 67.4297 21.6572 69.5244 21.6602 71.64C21.6602 72 22.5202 72.72 22.5602 72.15C22.6708 70.1129 23.1098 68.1071 23.8602 66.21C24.2459 65.29 24.7075 64.4036 25.2402 63.56C25.5002 63.16 25.7702 62.76 26.0702 62.37C26.2302 62.15 26.4002 61.94 26.5702 61.73C26.9202 61.32 26.8902 61.35 26.9802 60.73C26.9802 60.53 26.9202 60.24 26.6502 60.32V60.29Z" fill="#222221"/>
<path d="M125.01 56.91L125.43 57.13L125.03 56.73C126.933 61.5894 127.398 66.8935 126.37 72.01C126.31 72.35 126.96 73.01 127.1 72.52C127.803 69.8847 128.027 67.1444 127.76 64.43C127.637 63.0796 127.403 61.7418 127.06 60.43C126.67 58.94 125.96 57.53 125.65 56.04C125.53 55.47 124.38 56.58 125.01 56.91Z" fill="#222221"/>
<path d="M125.05 78.1L124.97 77.82C124.964 77.8565 124.964 77.8936 124.97 77.93L124.88 78.14C124.82 78.28 124.76 78.41 124.69 78.55C124.62 78.69 124.41 79.11 124.25 79.38C123.921 79.9344 123.55 80.4627 123.14 80.96C123.07 81.04 123.14 81.22 123.14 81.31C123.184 81.4589 123.267 81.5935 123.38 81.7C123.55 81.86 123.79 81.99 123.97 81.78C124.454 81.2141 124.871 80.5932 125.21 79.93C125.381 79.6063 125.531 79.2724 125.66 78.93C125.66 78.84 125.74 78.75 125.77 78.66C125.861 78.3966 125.882 78.1139 125.83 77.84C125.83 77.68 125.73 77.55 125.55 77.57C125.452 77.5867 125.362 77.6319 125.29 77.7C125.22 77.78 125.04 77.98 125.06 78.09L125.05 78.1Z" fill="#222221"/>
<path d="M131.03 54.51C131.11 54.09 131.34 54.67 131.38 54.75L131.59 55.16C131.75 55.48 131.9 55.8 132.04 56.16C132.336 56.8316 132.583 57.5233 132.78 58.23C133.165 59.6411 133.396 61.0894 133.47 62.55C133.47 63.02 134.47 63.75 134.47 62.97C134.446 59.7798 133.524 56.661 131.81 53.97C131.86 54.11 131.92 54.25 131.98 54.39C131.91 54.03 131.84 53.11 131.28 53.63C131.165 53.7443 131.079 53.885 131.03 54.04C131.011 54.1357 131.011 54.2343 131.03 54.33C131.032 54.4085 131.056 54.4849 131.1 54.55L131.03 54.51Z" fill="#222221"/>
<path d="M133.86 55.7001C133.86 55.1001 133.93 55.4701 134 55.6401L134.12 56.0001L134.33 56.6201C134.47 57.0901 134.6 57.6201 134.7 58.0501C134.91 58.9901 135.03 59.9401 135.15 60.8901C135.175 61.0475 135.236 61.1968 135.33 61.3255C135.424 61.4543 135.547 61.5587 135.69 61.6301C135.96 61.7401 136.12 61.6301 136.12 61.3101C136.102 60.061 135.917 58.82 135.57 57.6201C135.41 57.0401 135.23 56.4601 135.02 55.8901C134.916 55.5839 134.839 55.2694 134.79 54.9501C134.79 54.7901 134.71 54.6301 134.52 54.6101C134.33 54.5901 134.09 54.8301 134 54.9901C133.875 55.2042 133.825 55.4544 133.86 55.7001Z" fill="#222221"/>
<path d="M61.6802 12.82C59.7685 13.4331 58.0141 14.457 56.5402 15.82C56.3402 16.01 56.4702 16.34 56.6102 16.53C56.7502 16.72 57.0502 16.99 57.2702 16.81C58.7624 15.5672 60.4525 14.5835 62.2702 13.9C62.5502 13.8 62.4902 13.48 62.3902 13.26C62.2902 13.04 61.9802 12.69 61.7102 12.78L61.6802 12.82Z" fill="#222221"/>
<path d="M52.2199 32.58L52.1399 32.64L51.9699 32.73L51.6399 32.96C50.9939 33.4135 50.4378 33.9832 49.9999 34.64C49.4017 35.535 49.0404 36.5672 48.9499 37.64C48.9433 37.814 48.9823 37.9868 49.063 38.1411C49.1437 38.2955 49.2633 38.4261 49.4099 38.52C49.6099 38.66 49.9799 38.73 50.0199 38.39C50.1475 37.4328 50.4893 36.5167 51.0199 35.71C51.5598 34.9002 52.2696 34.2177 53.0999 33.71C53.3699 33.54 53.1599 33.07 53.0199 32.88C52.8799 32.69 52.5499 32.4 52.2499 32.55L52.2199 32.58Z" fill="#222221"/>
<path d="M53.1902 37.02C53.1902 36.54 53.1702 36.39 53.1302 36.57V36.63V36.78L53.0702 37.06L52.9802 37.64C52.9692 37.7921 53.0003 37.9444 53.0702 38.08C53.149 38.2335 53.2619 38.3669 53.4002 38.47C53.4524 38.5137 53.5132 38.5461 53.5786 38.565C53.644 38.584 53.7127 38.5891 53.7802 38.58C53.8328 38.5662 53.8801 38.5369 53.9158 38.4959C53.9514 38.4549 53.9739 38.404 53.9802 38.35C54.0402 38.11 54.1002 37.88 54.1502 37.64C54.2002 37.4 54.1502 37.41 54.2202 37.29C54.23 37.2203 54.23 37.1496 54.2202 37.08C54.2202 36.8487 54.2001 36.6178 54.1602 36.39C54.1486 36.3514 54.1293 36.3157 54.1035 36.2847C54.0777 36.2538 54.046 36.2284 54.0102 36.21C53.8502 36.12 53.6602 36.21 53.5402 36.36C53.4592 36.4446 53.3887 36.5386 53.3302 36.64C53.2786 36.7479 53.2416 36.8623 53.2202 36.98L53.1902 37.02Z" fill="#222221"/>
<path d="M26.05 84.87C27.9531 84.3143 29.704 83.3307 31.1686 81.9944C32.6331 80.658 33.7727 79.0044 34.5 77.16C34.5365 77.0103 34.5306 76.8533 34.4829 76.7067C34.4352 76.5601 34.3476 76.4297 34.23 76.33C34.1 76.19 33.69 75.94 33.56 76.23C32.8219 77.993 31.7488 79.596 30.4 80.95C29.0369 82.2819 27.4033 83.305 25.61 83.95C25.18 84.1 25.69 84.95 26.05 84.82V84.87Z" fill="#222221"/>
<path d="M29.87 86.06L30.03 85.97C30.1463 85.9194 30.2598 85.8626 30.37 85.8C30.59 85.68 30.8 85.55 31.01 85.42C31.4371 85.1597 31.8448 84.8689 32.23 84.55C33.0287 83.9216 33.7209 83.1686 34.28 82.32C34.43 82.09 34.23 81.73 34.08 81.56C33.93 81.39 33.61 81.13 33.43 81.32C32.77 82.01 32.1 82.7 31.38 83.32C30.6483 83.9417 29.8579 84.491 29.02 84.96C28.76 85.11 29.02 85.59 29.1 85.75C29.18 85.91 29.55 86.21 29.83 86.07L29.87 86.06Z" fill="#222221"/>
<path d="M62.1401 67.64C61.9701 67.37 61.9801 67.47 61.9001 67.64L61.8101 67.84L61.6601 68.19C61.5552 68.4514 61.4651 68.7184 61.3901 68.99C61.2392 69.5276 61.1552 70.0818 61.1401 70.64C61.155 70.7837 61.2047 70.9216 61.2849 71.0418C61.365 71.162 61.4732 71.2609 61.6001 71.33C61.7701 71.43 62.0901 71.46 62.0901 71.18C62.1102 70.5562 62.211 69.9377 62.3901 69.34C62.4787 69.0711 62.5822 68.8073 62.7001 68.55C62.7408 68.4787 62.7775 68.4052 62.8101 68.33C62.8426 68.2859 62.8633 68.2343 62.8701 68.18V67.52C62.8701 67.35 62.7601 67.19 62.5601 67.22C62.4775 67.2338 62.4008 67.2722 62.3401 67.33L62.1401 67.64Z" fill="#222221"/>
<path d="M65.0401 69C64.9101 68.58 64.9301 68.68 64.8901 68.85C64.8501 69.02 64.8901 68.97 64.8901 69.03L64.8301 69.34C64.7901 69.58 64.7601 69.82 64.7401 70.06C64.6901 70.5621 64.6901 71.0679 64.7401 71.57C64.7638 71.7562 64.8339 71.9334 64.944 72.0855C65.0541 72.2375 65.2006 72.3594 65.3701 72.44C65.4901 72.44 65.6501 72.53 65.7601 72.44C65.8102 72.3957 65.8483 72.3395 65.871 72.2766C65.8937 72.2137 65.9003 72.1461 65.8901 72.08C65.8751 71.7969 65.8751 71.5131 65.8901 71.23V71.12C65.8851 71.0468 65.8851 70.9733 65.8901 70.9V70.5C65.9222 70.2277 65.9689 69.9573 66.0301 69.69C66.0515 69.6212 66.0682 69.5511 66.0801 69.48C66.0999 69.217 66.0999 68.953 66.0801 68.69C66.078 68.5976 66.0503 68.5076 66.0001 68.43C65.9325 68.3703 65.8454 68.3373 65.7551 68.3373C65.6649 68.3373 65.5777 68.3703 65.5101 68.43C65.4126 68.4978 65.3279 68.5825 65.2601 68.68C65.1812 68.7911 65.1174 68.9122 65.0701 69.04L65.0401 69Z" fill="#222221"/>
</g>
<defs>
<clipPath id="clip0_549_3865">
<rect width="155" height="139" fill="white" transform="translate(0.5 0.5)"/>
</clipPath>
</defs>
</svg>
