<svg width="96" height="90" viewBox="0 0 96 90" fill="none" xmlns="http://www.w3.org/2000/svg">
<path d="M44.3077 70.4738C46.3217 67.7805 45.2028 63.7406 45.2028 60.3741H50.3497C50.3497 63.7406 49.2308 67.7805 51.4685 70.4738L68.028 90L84.1399 77.8803L66.9091 54.9875C64.6713 52.2943 60.4196 52.2943 57.2867 51.1721L58.6294 46.4588C61.986 47.3566 65.5664 49.601 68.6993 48.4788L96 38.6035L88.8392 19.3017L63.7762 27.8304C60.6434 28.9526 59.0769 32.9925 57.2867 35.6858L53.035 32.7681C55.049 30.0748 58.4056 27.3816 58.4056 23.7905L57.7343 0H37.5944L37.3706 23.7905C37.3706 27.3816 40.7273 30.0748 42.7413 32.7681L38.4895 35.6858C36.4755 32.9925 35.1329 28.9526 31.7762 27.8304L6.93706 19.3017L0 38.6035L27.0769 48.4788C30.2098 49.601 33.7902 47.3566 37.1469 46.4588L38.4895 51.1721C35.3566 52.2943 31.1049 52.2943 29.0909 54.9875L12.3077 77.8803L28.4196 90L44.3077 70.4738Z" fill="#FF6868"/>
</svg>
